<svg width="455" height="520" viewBox="0 0 455 520" fill="none" xmlns="http://www.w3.org/2000/svg">
<mask id="path-1-inside-1_354_11076" fill="white">
<path fill-rule="evenodd" clip-rule="evenodd" d="M0 225.687C0 101.044 101.84 0 227.466 0C353.092 0 454.932 101.044 454.932 225.687V520H0V225.687Z"/>
</mask>
<path fill-rule="evenodd" clip-rule="evenodd" d="M0 225.687C0 101.044 101.84 0 227.466 0C353.092 0 454.932 101.044 454.932 225.687V520H0V225.687Z" fill="#F8FCFF"/>
<path d="M454.932 520V620H554.932V520H454.932ZM0 520H-100V620H0V520ZM100 225.687C100 157.011 156.327 100 227.466 100V-100C47.3533 -100 -100 45.0763 -100 225.687H100ZM227.466 100C298.605 100 354.932 157.011 354.932 225.687H554.932C554.932 45.0763 407.579 -100 227.466 -100V100ZM354.932 225.687V520H554.932V225.687H354.932ZM454.932 420H0V620H454.932V420ZM100 520V225.687H-100V520H100Z" fill="#FFDA80" mask="url(#path-1-inside-1_354_11076)"/>
<mask id="mask0_354_11076" style="mask-type:alpha" maskUnits="userSpaceOnUse" x="18" y="21" width="420" height="480">
<ellipse cx="227.589" cy="228.95" rx="209.589" ry="207.95" fill="#252525"/>
<rect x="18" y="228.95" width="419.178" height="271.182" fill="#252525"/>
</mask>
<g mask="url(#mask0_354_11076)">
<path d="M477.909 -125.704H-22.1021L-22.1021 617.06H477.909V-125.704Z" fill="#4B4470"/>
<path d="M477.909 -125.704H-22.1021L-22.1021 617.06H477.909V-125.704Z" fill="url(#paint0_linear_354_11076)"/>
<path d="M431.518 100.474C431.518 147.89 393.079 186.33 345.661 186.33C298.245 186.33 259.805 147.89 259.805 100.474C259.805 53.0566 298.245 14.6182 345.661 14.6182C393.079 14.6182 431.518 53.0566 431.518 100.474V100.474Z" fill="url(#paint1_radial_354_11076)"/>
<path d="M416.21 100.474C416.21 139.436 384.623 171.021 345.661 171.021C306.699 171.021 275.114 139.436 275.114 100.474C275.114 61.5116 306.699 29.9268 345.661 29.9268C384.623 29.9268 416.21 61.5116 416.21 100.474Z" fill="url(#paint2_radial_354_11076)"/>
<path d="M409.507 100.474C409.507 135.734 380.922 164.318 345.661 164.318C310.401 164.318 281.817 135.734 281.817 100.474C281.817 65.2129 310.401 36.6284 345.661 36.6284C380.922 36.6284 409.507 65.2129 409.507 100.474Z" fill="url(#paint3_linear_354_11076)"/>
<path d="M320.648 79.561C320.648 88.7698 313.181 96.2363 303.973 96.2363C294.762 96.2363 287.296 88.7698 287.296 79.561C287.296 70.3508 294.762 62.8843 303.973 62.8843C313.181 62.8843 320.648 70.3508 320.648 79.561Z" fill="url(#paint4_radial_354_11076)"/>
<path d="M334.316 53.3156C334.316 59.053 329.666 63.7049 323.928 63.7049C318.191 63.7049 313.539 59.053 313.539 53.3156C313.539 47.5797 318.191 42.9277 323.928 42.9277C329.666 42.9277 334.316 47.5797 334.316 53.3156Z" fill="url(#paint5_radial_354_11076)"/>
<path d="M336.503 73.5458C336.503 77.4722 333.321 80.6539 329.395 80.6539C325.47 80.6539 322.287 77.4722 322.287 73.5458C322.287 69.621 325.47 66.4377 329.395 66.4377C333.321 66.4377 336.503 69.621 336.503 73.5458Z" fill="url(#paint6_radial_354_11076)"/>
<path opacity="0.8" d="M128.023 295.593L126.781 294.313L126.527 296.062L124.937 296.854L126.527 297.644L126.781 299.394L128.023 298.133L129.774 298.434L128.945 296.854L129.774 295.292L128.023 295.593Z" fill="#FEE2BB"/>
<path opacity="0.8" d="M386.704 362.151L385.914 362.961L384.786 362.774L385.313 363.77L384.786 364.788L385.914 364.597L386.704 365.407L386.874 364.278L387.889 363.77L386.874 363.273L386.704 362.151Z" fill="white"/>
<path opacity="0.8" d="M183.978 273.705L182.322 270.562L183.978 267.419L180.469 268.022L177.995 265.47L177.478 268.99L174.288 270.562L177.478 272.133L177.995 275.651L180.469 273.101L183.978 273.705Z" fill="#FBC78E"/>
<path opacity="0.8" d="M132.297 226.045L133.124 224.473L131.374 224.773L130.133 223.503L129.879 225.253L128.288 226.045L129.879 226.835L130.133 228.584L131.374 227.323L133.124 227.616L132.297 226.045Z" fill="white"/>
<path opacity="0.8" d="M349.913 348.621L349.123 349.431L348.023 349.242L348.54 350.223L348.023 351.219L349.123 351.03L349.913 351.831L350.063 350.731L351.07 350.223L350.063 349.732L349.913 348.621Z" fill="#FEE2BB"/>
<path opacity="0.8" d="M237.182 239.944L236.486 240.66L235.496 240.491L235.958 241.374L235.496 242.26L236.486 242.091L237.182 242.805L237.332 241.817L238.226 241.374L237.332 240.932L237.182 239.944Z" fill="white"/>
<path opacity="0.8" d="M307.178 343.447L306.064 344.575L304.504 344.313L305.238 345.704L304.504 347.106L306.064 346.835L307.178 347.972L307.393 346.4L308.814 345.704L307.393 345.007L307.178 343.447Z" fill="white"/>
<path opacity="0.8" d="M201.698 385.935L201.249 385.475L201.153 386.113L200.578 386.397L201.153 386.679L201.249 387.328L201.698 386.866L202.34 386.981L202.039 386.397L202.34 385.831L201.698 385.935Z" fill="white"/>
<path opacity="0.8" d="M314.197 248.04L311.864 245.65L311.393 248.954L308.402 250.43L311.393 251.908L311.864 255.209L314.197 252.819L317.489 253.384L315.929 250.43L317.489 247.476L314.197 248.04Z" fill="#FBC78E"/>
<path opacity="0.8" d="M44.6735 125.57L43.7988 124.667L43.6208 125.919L42.4922 126.473L43.6208 127.028L43.7988 128.281L44.6735 127.376L45.9149 127.584L45.3333 126.473L45.9149 125.364L44.6735 125.57Z" fill="#FFEBC9"/>
<path opacity="0.8" d="M124.181 133.183L123.927 131.432L122.686 132.702L120.934 132.402L121.763 133.973L120.934 135.545L122.686 135.243L123.927 136.513L124.181 134.755L125.778 133.973L124.181 133.183Z" fill="white"/>
<path opacity="0.8" d="M225.627 357.861L226.4 357.053L227.509 357.242L226.981 356.252L227.509 355.265L226.4 355.454L225.627 354.644L225.458 355.755L224.461 356.252L225.458 356.752L225.627 357.861Z" fill="white"/>
<path opacity="0.8" d="M297.2 51.904L297.652 52.375L297.747 51.7347L298.329 51.4439L297.747 51.1618L297.652 50.5215L297.2 50.9816L296.56 50.8688L296.862 51.4439L296.56 52.0169L297.2 51.904Z" fill="white"/>
<path opacity="0.8" d="M246.248 190.122L245.145 188.993L244.911 190.554L243.5 191.251L244.911 191.947L245.145 193.519L246.248 192.379L247.81 192.653L247.075 191.251L247.81 189.859L246.248 190.122Z" fill="white"/>
<path opacity="0.8" d="M53.1962 260.27L50.9845 258.01L50.5244 261.134L47.7007 262.536L50.5244 263.929L50.9845 267.052L53.1962 264.795L56.2999 265.331L54.8327 262.536L56.2999 259.732L53.1962 260.27Z" fill="white"/>
<path opacity="0.8" d="M415.197 365.86L414.368 364.997L414.199 366.182L413.118 366.707L414.199 367.254L414.368 368.439L415.197 367.575L416.382 367.781L415.835 366.707L416.382 365.654L415.197 365.86Z" fill="white"/>
<path opacity="0.8" d="M264.365 377.904L265.324 376.916L266.68 377.153L266.04 375.929L266.68 374.724L265.324 374.95L264.365 373.971L264.178 375.328L262.937 375.929L264.178 376.541L264.365 377.904Z" fill="#FFEBC9"/>
<path opacity="0.8" d="M371.971 380.75L371.385 381.353L370.539 381.21L370.936 381.965L370.539 382.707L371.385 382.575L371.971 383.178L372.093 382.33L372.854 381.965L372.093 381.588L371.971 380.75Z" fill="#FFEBC9"/>
<path opacity="0.8" d="M325.464 380.353L324.75 379.608L324.6 380.643L323.658 381.095L324.6 381.566L324.75 382.59L325.464 381.848L326.499 382.017L326.011 381.095L326.499 380.172L325.464 380.353Z" fill="white"/>
<path opacity="0.8" d="M392.594 385.301L391.88 384.548L391.73 385.583L390.789 386.035L391.73 386.506L391.88 387.541L392.594 386.788L393.621 386.957L393.141 386.035L393.621 385.112L392.594 385.301Z" fill="white"/>
<path opacity="0.8" d="M175.182 331.362L173.526 329.669L173.177 332.022L171.041 333.075L173.177 334.129L173.526 336.491L175.182 334.787L177.533 335.182L176.424 333.075L177.533 330.967L175.182 331.362Z" fill="white"/>
<path opacity="0.8" d="M231.546 302.281L230.587 301.302L230.378 302.658L229.156 303.268L230.378 303.88L230.587 305.235L231.546 304.258L232.892 304.484L232.26 303.268L232.892 302.055L231.546 302.281Z" fill="#FEE2BB"/>
<path opacity="0.8" d="M417.125 333.079L416.533 333.682L415.695 333.541L416.092 334.283L415.695 335.036L416.533 334.904L417.125 335.507L417.249 334.659L418.011 334.283L417.249 333.908L417.125 333.079Z" fill="white"/>
<path opacity="0.8" d="M264.909 438.075L265.68 438.884L265.849 437.775L266.845 437.285L265.849 436.777L265.68 435.676L264.909 436.477L263.798 436.288L264.323 437.285L263.798 438.263L264.909 438.075Z" fill="white"/>
<path opacity="0.8" d="M263.356 326.941L264.315 325.953L265.669 326.187L265.029 324.963L265.669 323.761L264.315 323.984L263.356 323.008L263.167 324.362L261.925 324.963L263.167 325.575L263.356 326.941Z" fill="white"/>
<path opacity="0.8" d="M114.118 417.653L112.575 416.064L112.245 418.265L110.25 419.242L112.245 420.232L112.575 422.432L114.118 420.842L116.321 421.219L115.285 419.242L116.321 417.276L114.118 417.653Z" fill="white"/>
<path opacity="0.8" d="M138.205 373.579L141.348 374.106L139.861 371.302L141.348 368.478L138.205 369.023L135.995 366.746L135.533 369.889L132.692 371.302L135.533 372.704L135.995 375.844L138.205 373.579Z" fill="#FBC78E"/>
<path opacity="0.8" d="M74.0433 439.75L73.1382 440.692L71.8599 440.466L72.4611 441.615L71.8599 442.761L73.1382 442.535L74.0433 443.477L74.23 442.188L75.3976 441.615L74.23 441.039L74.0433 439.75Z" fill="white"/>
<path opacity="0.8" d="M283.529 385.82L281.977 384.22L281.647 386.441L279.653 387.419L281.647 388.416L281.977 390.638L283.529 389.028L285.75 389.403L284.706 387.419L285.75 385.442L283.529 385.82Z" fill="#FEE2BB"/>
<path opacity="0.8" d="M226.49 382.705L225.709 381.904L225.551 383.016L224.552 383.506L225.551 383.994L225.709 385.103L226.49 384.305L227.591 384.502L227.074 383.506L227.591 382.508L226.49 382.705Z" fill="white"/>
<path opacity="0.8" d="M366.643 425.219L365.92 424.475L365.768 425.51L364.837 425.962L365.768 426.424L365.92 427.448L366.643 426.715L367.68 426.884L367.19 425.962L367.68 425.039L366.643 425.219Z" fill="white"/>
<path opacity="0.8" d="M184.113 410.406L182.446 408.705L182.099 411.057L179.972 412.11L182.099 413.165L182.446 415.526L184.113 413.822L186.464 414.217L185.355 412.11L186.464 410.002L184.113 410.406Z" fill="#FEE2BB"/>
<path opacity="0.8" d="M18.8737 428.505L21.3588 431.047L21.8667 427.537L25.0464 425.966L21.8667 424.394L21.3588 420.876L18.8737 423.416L15.375 422.814L17.0202 425.966L15.375 429.109L18.8737 428.505Z" fill="white"/>
<path opacity="0.8" d="M311.619 215.809L312.155 216.345L312.259 215.592L312.945 215.264L312.259 214.925L312.155 214.172L311.619 214.717L310.876 214.587L311.224 215.264L310.876 215.933L311.619 215.809Z" fill="white"/>
<path opacity="0.8" d="M264.291 61.6489L263.219 62.7298L261.732 62.478L262.429 63.8215L261.732 65.1672L263.219 64.9132L264.291 65.9963L264.499 64.49L265.862 63.8215L264.499 63.1443L264.291 61.6489Z" fill="#FFEBC9"/>
<path opacity="0.8" d="M427.446 31.5886L428.065 30.9483L428.931 31.0981L428.519 30.308L428.931 29.5288L428.065 29.6786L427.446 29.0383L427.314 29.913L426.513 30.308L427.314 30.703L427.446 31.5886Z" fill="white"/>
<path opacity="0.8" d="M338.456 151.502L339.537 150.963L338.456 150.438L338.287 149.253L337.457 150.108L336.272 149.911L336.828 150.963L336.272 152.029L337.457 151.832L338.287 152.687L338.456 151.502Z" fill="white"/>
<path opacity="0.8" d="M41.5307 156.889L42.3598 155.317L40.6083 155.619L39.3668 154.349L39.1129 156.107L37.522 156.889L39.1129 157.679L39.3668 159.439L40.6083 158.169L42.3598 158.46L41.5307 156.889Z" fill="white"/>
<path opacity="0.8" d="M192.726 217.875L191.691 216.803L191.467 218.29L190.119 218.947L191.467 219.616L191.691 221.103L192.726 220.03L194.213 220.284L193.516 218.947L194.213 217.621L192.726 217.875Z" fill="white"/>
<path opacity="0.8" d="M214.165 156.698L213.44 155.953L213.288 156.989L212.348 157.449L213.288 157.911L213.44 158.936L214.165 158.193L215.189 158.371L214.699 157.449L215.189 156.526L214.165 156.698Z" fill="#FEE2BB"/>
<path opacity="0.8" d="M263.985 148.257L264.831 147.391L266.007 147.6L265.454 146.536L266.007 145.473L264.831 145.67L263.985 144.813L263.818 146.009L262.743 146.536L263.818 147.061L263.985 148.257Z" fill="white"/>
<path opacity="0.8" d="M137.016 179.945L138.409 178.504L140.384 178.843L139.453 177.074L140.384 175.305L138.409 175.643L137.016 174.204L136.734 176.19L134.928 177.074L136.734 177.959L137.016 179.945Z" fill="white"/>
<path opacity="0.8" d="M298.366 156.16L299.666 155.522L298.366 154.881L298.16 153.451L297.144 154.486L295.714 154.241L296.391 155.522L295.714 156.811L297.144 156.566L298.16 157.601L298.366 156.16Z" fill="white"/>
<path opacity="0.8" d="M266.151 114.722L266.752 115.325L266.865 114.485L267.627 114.11L266.865 113.735L266.752 112.897L266.151 113.498L265.322 113.359L265.717 114.11L265.322 114.863L266.151 114.722Z" fill="white"/>
<path opacity="0.8" d="M147.19 18.9481L146.118 17.8477L145.892 19.3735L144.499 20.0593L145.892 20.7452L146.118 22.271L147.19 21.1597L148.714 21.4245L148 20.0593L148.714 18.6854L147.19 18.9481Z" fill="white"/>
<path opacity="0.8" d="M23.6918 46.1544L24.4167 44.7805L22.8909 45.0453L21.81 43.9341L21.5821 45.4686L20.2104 46.1544L21.5821 46.8424L21.81 48.3661L22.8909 47.2657L24.4167 47.5196L23.6918 46.1544Z" fill="#FFEBC9"/>
<path opacity="0.8" d="M177.361 144.91L178.405 143.838L179.892 144.081L179.198 142.755L179.892 141.429L178.405 141.683L177.361 140.611L177.147 142.097L175.79 142.755L177.147 143.423L177.361 144.91Z" fill="white"/>
<path opacity="0.8" d="M83.3365 127.716L84.578 128.986L84.8319 127.226L86.4315 126.445L84.8319 125.655L84.578 123.894L83.3365 125.175L81.585 124.873L82.4141 126.445L81.585 128.016L83.3365 127.716Z" fill="#FBC78E"/>
<path opacity="0.8" d="M304.369 114.392L303.749 113.762L303.616 114.637L302.826 115.032L303.616 115.427L303.749 116.302L304.369 115.664L305.255 115.822L304.84 115.032L305.255 114.242L304.369 114.392Z" fill="white"/>
<path opacity="0.8" d="M40.3953 218.952L42.0404 215.837L38.5678 216.441L36.113 213.918L35.6052 217.4L32.4429 218.952L35.6052 220.506L36.113 223.987L38.5678 221.465L42.0404 222.066L40.3953 218.952Z" fill="#FBC78E"/>
<path opacity="0.8" d="M71.0763 163.576L72.5457 160.78L69.4398 161.308L67.2195 159.048L66.768 162.174L63.9443 163.576L66.768 164.978L67.2195 168.101L69.4398 165.833L72.5457 166.369L71.0763 163.576Z" fill="#FFEBC9"/>
<path opacity="0.8" d="M302.227 22.9502L302.904 23.6469L303.047 22.6855L303.922 22.2535L303.047 21.8216L302.904 20.8623L302.227 21.559L301.268 21.3984L301.719 22.2535L301.268 23.1109L302.227 22.9502Z" fill="#FEE2BB"/>
<path opacity="0.8" d="M122.667 38.469L123.466 39.2786L123.626 38.15L124.651 37.6508L123.626 37.1429L123.466 36.0229L122.667 36.8325L121.556 36.6437L122.083 37.6508L121.556 38.6578L122.667 38.469Z" fill="#FFEBC9"/>
<path opacity="0.8" d="M77.1162 39.25L77.8889 38.4513L78.9979 38.6379L78.4705 37.6504L78.9979 36.6628L77.8889 36.8495L77.1162 36.0508L76.9469 37.1512L75.9507 37.6504L76.9469 38.1496L77.1162 39.25Z" fill="white"/>
<path opacity="0.8" d="M155.894 61.1823L156.412 60.1947L155.31 60.3835L154.52 59.574L154.37 60.6852L153.363 61.1823L154.37 61.6728L154.52 62.7818L155.31 61.9831L156.412 62.172L155.894 61.1823Z" fill="white"/>
<path opacity="0.8" d="M92.8408 66.1506L91.7578 65.0393L91.5321 66.5738L90.1582 67.2618L91.5321 67.939L91.7578 69.4735L92.8408 68.3622L94.3645 68.6248L93.6396 67.2618L94.3645 65.8879L92.8408 66.1506Z" fill="#FEE2BB"/>
<path opacity="0.8" d="M352.498 63.2962L352.998 63.8214L353.108 63.0987L353.749 62.7775L353.108 62.4584L352.998 61.7422L352.498 62.2609L351.773 62.1372L352.112 62.7775L351.773 63.4177L352.498 63.2962Z" fill="white"/>
<path opacity="0.8" d="M267.374 46.3844L267.978 46.9965L268.091 46.1478L268.863 45.7832L268.091 45.4055L267.978 44.5591L267.374 45.1711L266.547 45.0279L266.942 45.7832L266.547 46.5255L267.374 46.3844Z" fill="white"/>
<path opacity="0.8" d="M48.2628 44.0384L50.0143 42.2304L52.4886 42.6645L51.3209 40.442L52.4886 38.213L50.0143 38.6362L48.2628 36.8391L47.896 39.3221L45.6475 40.442L47.896 41.5532L48.2628 44.0384Z" fill="#FEE2BB"/>
<path opacity="0.8" d="M179.471 46.0806L181.033 44.4811L183.245 44.8565L182.199 42.8815L183.245 40.8955L181.033 41.2732L179.471 39.6736L179.152 41.8831L177.148 42.8815L179.152 43.869L179.471 46.0806Z" fill="#FFEBC9"/>
<path opacity="0.8" d="M319.076 52.6656L319.801 53.4014L319.942 52.3835L320.856 51.9342L319.942 51.4806L319.801 50.4648L319.076 51.1984L318.069 51.0292L318.54 51.9342L318.069 52.8371L319.076 52.6656Z" fill="#FFEBC9"/>
<path opacity="0.8" d="M84.6742 312.067L83.4327 313.337L81.6812 313.046L82.5103 314.608L81.6812 316.189L83.4327 315.887L84.6742 317.159L84.9281 315.398L86.519 314.608L84.9281 313.827L84.6742 312.067Z" fill="white"/>
<path opacity="0.8" d="M50.8916 365.253L51.9833 366.384L52.2112 364.821L53.6415 364.124L52.2112 363.419L51.9833 361.847L50.8916 362.987L49.3311 362.722L50.0647 364.124L49.3311 365.518L50.8916 365.253Z" fill="white"/>
<path opacity="0.8" d="M101.642 205.103L103.394 206.911L103.75 204.425L106.009 203.306L103.75 202.196L103.394 199.703L101.642 201.511L99.1592 201.077L100.336 203.306L99.1592 205.528L101.642 205.103Z" fill="#FEE2BB"/>
<path opacity="0.8" d="M175.593 175.856L175.009 176.468L174.163 176.316L174.558 177.069L174.163 177.822L175.009 177.673L175.593 178.291L175.725 177.445L176.478 177.069L175.725 176.692L175.593 175.856Z" fill="white"/>
<path opacity="0.8" d="M229.543 125.698L228.818 124.945L228.677 125.98L227.735 126.44L228.677 126.9L228.818 127.935L229.543 127.184L230.576 127.362L230.088 126.44L230.576 125.518L229.543 125.698Z" fill="white"/>
<path opacity="0.8" d="M302.327 185.48L301.83 184.952L301.717 185.666L301.068 185.996L301.717 186.306L301.83 187.031L302.327 186.513L303.043 186.636L302.705 185.996L303.043 185.347L302.327 185.48Z" fill="white"/>
<path opacity="0.8" d="M411.72 442.593L411.418 440.616L410.025 442.047L408.05 441.708L408.99 443.477L408.05 445.246L410.025 444.907L411.418 446.337L411.72 444.36L413.506 443.477L411.72 442.593Z" fill="#FEE2BB"/>
<path opacity="0.8" d="M379.431 23.5018L381.022 22.7204L379.431 21.9304L379.177 20.1702L377.935 21.4399L376.186 21.149L377.013 22.7204L376.186 24.2918L377.935 23.9923L379.177 25.262L379.431 23.5018Z" fill="#FFEBC9"/>
<path opacity="0.8" d="M313.151 434.543L312.04 433.415L311.814 434.975L310.395 435.672L311.814 436.369L312.04 437.94L313.151 436.8L314.703 437.074L313.961 435.672L314.703 434.278L313.151 434.543Z" fill="white"/>
<path opacity="0.8" d="M403.516 307.999L404.07 307.435L404.851 307.568L404.484 306.862L404.851 306.155L404.07 306.298L403.516 305.723L403.403 306.513L402.696 306.862L403.403 307.209L403.516 307.999Z" fill="#FFEBC9"/>
<path opacity="0.8" d="M92.6236 380.301L91.8335 381.101L90.731 380.913L91.2497 381.909L90.731 382.888L91.8335 382.701L92.6236 383.511L92.7733 382.399L93.7891 381.909L92.7733 381.401L92.6236 380.301Z" fill="white"/>
<path opacity="0.8" d="M406.934 157.301L405.992 155.532L406.934 153.763L404.957 154.102L403.555 152.663L403.264 154.649L401.476 155.532L403.264 156.418L403.555 158.404L404.957 156.963L406.934 157.301Z" fill="white"/>
<path opacity="0.8" d="M405.791 123.716L406.874 122.605L408.398 122.87L407.673 121.505L408.398 120.131L406.874 120.396L405.791 119.295L405.565 120.819L404.183 121.505L405.565 122.193L405.791 123.716Z" fill="#FFEBC9"/>
<path opacity="0.8" d="M364.529 120.83L366.73 118.562L369.856 119.098L368.377 116.302L369.856 113.509L366.73 114.034L364.529 111.777L364.078 114.902L361.237 116.302L364.078 117.704L364.529 120.83Z" fill="white"/>
<path opacity="0.8" d="M394.872 54.1935L395.399 53.2059L394.29 53.3948L393.517 52.5852L393.348 53.6965L392.35 54.1935L393.348 54.684L393.517 55.7931L394.29 54.9944L395.399 55.1832L394.872 54.1935Z" fill="white"/>
<path opacity="0.8" d="M367.442 344.829L366.37 343.718L366.144 345.253L364.75 345.93L366.144 346.616L366.37 348.15L367.442 347.039L368.968 347.304L368.251 345.93L368.968 344.564L367.442 344.829Z" fill="white"/>
<path opacity="0.8" d="M265.454 216.599L264.061 215.18L263.778 217.146L261.992 218.029L263.778 218.915L264.061 220.881L265.454 219.46L267.412 219.79L266.489 218.029L267.412 216.271L265.454 216.599Z" fill="#FFEBC9"/>
<path opacity="0.8" d="M351.739 212.644L350.497 211.373L350.252 213.133L348.652 213.923L350.252 214.704L350.497 216.464L351.739 215.184L353.488 215.486L352.661 213.923L353.488 212.343L351.739 212.644Z" fill="#FBC78E"/>
<path opacity="0.8" d="M437.257 180.557L438.65 179.127L440.606 179.466L439.675 177.716L440.606 175.947L438.65 176.286L437.257 174.856L436.966 176.831L435.187 177.716L436.966 178.591L437.257 180.557Z" fill="white"/>
</g>
<defs>
<linearGradient id="paint0_linear_354_11076" x1="227.904" y1="-125.704" x2="227.904" y2="617.06" gradientUnits="userSpaceOnUse">
<stop stop-color="#06131D"/>
<stop offset="0.234375" stop-color="#071925"/>
<stop offset="0.604167" stop-color="#103550"/>
<stop offset="1" stop-color="#1C5B85"/>
</linearGradient>
<radialGradient id="paint1_radial_354_11076" cx="0" cy="0" r="1" gradientUnits="userSpaceOnUse" gradientTransform="translate(344.893 99.7051) scale(85.6603 85.6603)">
<stop stop-color="#0D87FF"/>
<stop offset="0.2367" stop-color="#FFD55C" stop-opacity="0.764706"/>
<stop offset="0.3932" stop-color="#FFD765" stop-opacity="0.607843"/>
<stop offset="0.5265" stop-color="#FFDB74" stop-opacity="0.47451"/>
<stop offset="0.6468" stop-color="#FFE089" stop-opacity="0.352941"/>
<stop offset="0.7583" stop-color="#FFE8A4" stop-opacity="0.243137"/>
<stop offset="0.8635" stop-color="#FFF0C6" stop-opacity="0.137255"/>
<stop offset="0.9617" stop-color="#FFFAED" stop-opacity="0.039216"/>
<stop offset="1" stop-color="white" stop-opacity="0"/>
</radialGradient>
<radialGradient id="paint2_radial_354_11076" cx="0" cy="0" r="1" gradientUnits="userSpaceOnUse" gradientTransform="translate(326.888 72.4723) scale(95.1567 95.1567)">
<stop stop-color="#FFEBC9"/>
<stop offset="0.2771" stop-color="#FFE9C5"/>
<stop offset="0.5263" stop-color="#FEE2BB"/>
<stop offset="0.7641" stop-color="#FDD7A8"/>
<stop offset="0.9948" stop-color="#FBC78F"/>
<stop offset="1" stop-color="#FBC78E"/>
</radialGradient>
<linearGradient id="paint3_linear_354_11076" x1="283.412" y1="24.464" x2="354.845" y2="111.688" gradientUnits="userSpaceOnUse">
<stop stop-color="white"/>
<stop offset="0.4417" stop-color="#FFEBC9"/>
<stop offset="0.5964" stop-color="#FFE9C5"/>
<stop offset="0.7356" stop-color="#FEE2BB"/>
<stop offset="0.8683" stop-color="#FDD7A8"/>
<stop offset="0.9971" stop-color="#FBC78F"/>
<stop offset="1" stop-color="#FBC78E"/>
</linearGradient>
<radialGradient id="paint4_radial_354_11076" cx="0" cy="0" r="1" gradientUnits="userSpaceOnUse" gradientTransform="translate(310.46 85.3594) rotate(180) scale(28.1162)">
<stop stop-color="#FFEBC9"/>
<stop offset="0.3433" stop-color="#FFE9C6"/>
<stop offset="0.567" stop-color="#FEE4BE"/>
<stop offset="0.7566" stop-color="#FDDBAF"/>
<stop offset="0.9261" stop-color="#FCCE9A"/>
<stop offset="1" stop-color="#FBC78E"/>
</radialGradient>
<radialGradient id="paint5_radial_354_11076" cx="0" cy="0" r="1" gradientUnits="userSpaceOnUse" gradientTransform="translate(328.606 58.8065) rotate(180) scale(18.9827)">
<stop stop-color="#FFEBC9"/>
<stop offset="0.2771" stop-color="#FFE9C5"/>
<stop offset="0.5263" stop-color="#FEE2BB"/>
<stop offset="0.7641" stop-color="#FDD7A8"/>
<stop offset="0.9948" stop-color="#FBC78F"/>
<stop offset="1" stop-color="#FBC78E"/>
</radialGradient>
<radialGradient id="paint6_radial_354_11076" cx="0" cy="0" r="1" gradientUnits="userSpaceOnUse" gradientTransform="translate(331.286 76.3675) rotate(180) scale(11.9413)">
<stop stop-color="#FFEBC9"/>
<stop offset="0.2771" stop-color="#FFE9C5"/>
<stop offset="0.5263" stop-color="#FEE2BB"/>
<stop offset="0.7641" stop-color="#FDD7A8"/>
<stop offset="0.9948" stop-color="#FBC78F"/>
<stop offset="1" stop-color="#FBC78E"/>
</radialGradient>
</defs>
</svg>
