<svg width="261" height="223" viewBox="0 0 261 223" fill="none" xmlns="http://www.w3.org/2000/svg">
<path d="M29 54L23.5 51.5V90L29 86V54Z" fill="#F0B40C"/>
<path d="M29 126V93L0 110L20 111L29 126Z" fill="#F0B40C"/>
<mask id="path-2-inside-1_474_850" fill="white">
<path fill-rule="evenodd" clip-rule="evenodd" d="M28.0067 35.3656C21.9398 37.2864 21.3758 45.6508 27.13 48.3686L78 72.3957V65C78 55.0589 105.982 47 140.5 47C175.018 47 203 55.0589 203 65V76.2739L256.23 49.4461C261.824 46.6267 261.182 38.4419 255.217 36.5293L142.624 0.430893C141.242 -0.0120699 139.757 -0.0147712 138.374 0.423161L28.0067 35.3656Z"/>
</mask>
<path fill-rule="evenodd" clip-rule="evenodd" d="M28.0067 35.3656C21.9398 37.2864 21.3758 45.6508 27.13 48.3686L78 72.3957V65C78 55.0589 105.982 47 140.5 47C175.018 47 203 55.0589 203 65V76.2739L256.23 49.4461C261.824 46.6267 261.182 38.4419 255.217 36.5293L142.624 0.430893C141.242 -0.0120699 139.757 -0.0147712 138.374 0.423161L28.0067 35.3656Z" fill="#F0B40C"/>
<path d="M27.13 48.3686L26.7029 49.2728L26.7029 49.2728L27.13 48.3686ZM28.0067 35.3656L28.3086 36.319L28.3086 36.319L28.0067 35.3656ZM78 72.3957L77.5729 73.2999L79 73.974V72.3957H78ZM203 76.2739H202V77.8978L203.45 77.1669L203 76.2739ZM256.23 49.4461L256.68 50.3391L256.23 49.4461ZM255.217 36.5293L254.911 37.4816L254.911 37.4816L255.217 36.5293ZM142.624 0.430893L142.929 -0.521363L142.929 -0.521363L142.624 0.430893ZM138.374 0.423161L138.072 -0.530199L138.072 -0.530199L138.374 0.423161ZM27.5571 47.4644C22.6249 45.1348 23.1083 37.9654 28.3086 36.319L27.7049 34.4122C20.7712 36.6075 20.1267 46.1667 26.7029 49.2728L27.5571 47.4644ZM78.427 71.4915L27.5571 47.4644L26.7029 49.2728L77.5729 73.2999L78.427 71.4915ZM77 65V72.3957H79V65H77ZM140.5 46C123.175 46 107.452 48.0213 96.029 51.3111C90.3242 52.9541 85.6348 54.9295 82.3487 57.167C79.096 59.3818 77 62.0109 77 65H79C79 63.0185 80.4017 60.9123 83.4743 58.8201C86.5136 56.7507 90.9771 54.8474 96.5825 53.233C107.78 50.0082 123.307 48 140.5 48V46ZM204 65C204 62.0109 201.904 59.3818 198.651 57.167C195.365 54.9295 190.676 52.9541 184.971 51.3111C173.548 48.0213 157.825 46 140.5 46V48C157.693 48 173.22 50.0082 184.417 53.233C190.023 54.8474 194.486 56.7507 197.526 58.8201C200.598 60.9123 202 63.0185 202 65H204ZM204 76.2739V65H202V76.2739H204ZM255.78 48.5531L202.55 75.381L203.45 77.1669L256.68 50.3391L255.78 48.5531ZM254.911 37.4816C260.024 39.1209 260.575 46.1365 255.78 48.5531L256.68 50.3391C263.073 47.1169 262.339 37.7629 255.522 35.5771L254.911 37.4816ZM142.318 1.38315L254.911 37.4816L255.522 35.5771L142.929 -0.521363L142.318 1.38315ZM138.676 1.37652C139.861 1.00115 141.134 1.00347 142.318 1.38315L142.929 -0.521363C141.35 -1.02761 139.653 -1.03069 138.072 -0.530199L138.676 1.37652ZM28.3086 36.319L138.676 1.37652L138.072 -0.530199L27.7049 34.4122L28.3086 36.319Z" fill="#F0B40C" mask="url(#path-2-inside-1_474_850)"/>
<mask id="path-4-inside-2_474_850" fill="white">
<path fill-rule="evenodd" clip-rule="evenodd" d="M201 68C201 58.6112 173.913 51 140.5 51C107.087 51 80 58.6112 80 68V111C80 115.418 83.5817 119 88 119H193C197.418 119 201 115.418 201 111V68Z"/>
</mask>
<path fill-rule="evenodd" clip-rule="evenodd" d="M201 68C201 58.6112 173.913 51 140.5 51C107.087 51 80 58.6112 80 68V111C80 115.418 83.5817 119 88 119H193C197.418 119 201 115.418 201 111V68Z" fill="#F0B40C"/>
<path d="M140.5 52C157.142 52 172.172 53.8966 183.009 56.9419C188.435 58.4665 192.754 60.2635 195.692 62.2158C198.669 64.1935 200 66.1682 200 68H202C202 65.1374 199.945 62.6399 196.799 60.5499C193.615 58.4345 189.073 56.5683 183.55 55.0165C172.492 51.909 157.271 50 140.5 50V52ZM81 68C81 66.1682 82.3308 64.1935 85.3077 62.2158C88.2464 60.2635 92.5647 58.4665 97.9906 56.9419C108.828 53.8966 123.858 52 140.5 52V50C123.729 50 108.508 51.909 97.4495 55.0165C91.927 56.5683 87.3853 58.4345 84.201 60.5499C81.0551 62.6399 79 65.1374 79 68H81ZM81 111V68H79V111H81ZM88 118C84.134 118 81 114.866 81 111H79C79 115.971 83.0294 120 88 120V118ZM193 118H88V120H193V118ZM200 111C200 114.866 196.866 118 193 118V120C197.971 120 202 115.971 202 111H200ZM200 68V111H202V68H200Z" fill="#F0B40C" mask="url(#path-4-inside-2_474_850)"/>
<path d="M64.7153 168.224C64.7153 167.36 64.4593 166.608 63.9473 165.968C63.4353 165.328 62.7473 164.752 61.8833 164.24C61.0513 163.728 60.1393 163.232 59.1473 162.752C58.1553 162.272 57.1473 161.76 56.1233 161.216C55.1313 160.672 54.2033 160.048 53.3393 159.344C52.5073 158.64 51.8353 157.808 51.3233 156.848C50.8113 155.888 50.5553 154.752 50.5553 153.44C50.5553 151.392 51.0353 149.664 51.9953 148.256C52.9873 146.816 54.2833 145.712 55.8833 144.944C57.5153 144.176 59.3073 143.792 61.2593 143.792C62.4753 143.792 63.8193 143.936 65.2913 144.224C66.7633 144.512 68.0753 144.944 69.2273 145.52L67.1153 150.992C66.1233 150.128 64.9713 149.472 63.6593 149.024C62.3473 148.544 61.1633 148.304 60.1073 148.304C59.1153 148.304 58.3313 148.496 57.7553 148.88C57.1793 149.264 56.7633 149.744 56.5073 150.32C56.2833 150.864 56.1713 151.392 56.1713 151.904C56.1713 152.672 56.4273 153.344 56.9393 153.92C57.4513 154.496 58.1233 155.04 58.9553 155.552C59.8193 156.032 60.7633 156.512 61.7873 156.992C62.8113 157.472 63.8193 158 64.8113 158.576C65.8353 159.152 66.7633 159.824 67.5953 160.592C68.4593 161.328 69.1473 162.192 69.6593 163.184C70.1713 164.144 70.4273 165.296 70.4273 166.64C70.4273 168.816 69.8993 170.656 68.8433 172.16C67.7873 173.632 66.3953 174.752 64.6673 175.52C62.9713 176.256 61.1153 176.624 59.0993 176.624C57.0193 176.624 55.0993 176.32 53.3393 175.712C51.5793 175.104 50.1393 174.4 49.0193 173.6L51.9473 168.56C53.1313 169.552 54.4753 170.384 55.9793 171.056C57.4833 171.696 58.9553 172.016 60.3953 172.016C61.6433 172.016 62.6673 171.68 63.4673 171.008C64.2993 170.336 64.7153 169.408 64.7153 168.224ZM81.3856 176V153.296H87.0496V176H81.3856ZM73.7536 157.76V153.296H94.6816V157.76H73.7536ZM108.812 176.336C106.764 176.336 104.988 175.952 103.484 175.184C101.98 174.384 100.812 173.264 99.9796 171.824C99.1476 170.384 98.7316 168.72 98.7316 166.832V153.296H104.396V165.872C104.396 167.888 104.86 169.456 105.788 170.576C106.748 171.696 108.012 172.256 109.58 172.256C111.084 172.256 112.22 171.744 112.988 170.72C113.756 169.696 114.14 168.256 114.14 166.4V153.296H119.804V165.44C119.804 167.616 119.34 169.536 118.412 171.2C117.516 172.832 116.236 174.096 114.572 174.992C112.94 175.888 111.02 176.336 108.812 176.336ZM133.896 176H126.504V153.296H134.472C137.064 153.296 139.368 153.76 141.384 154.688C143.432 155.616 145.032 156.912 146.184 158.576C147.368 160.208 147.96 162.128 147.96 164.336C147.96 166.544 147.352 168.528 146.136 170.288C144.92 172.048 143.256 173.44 141.144 174.464C139.032 175.488 136.616 176 133.896 176ZM142.104 165.104C142.104 163.504 141.784 162.16 141.144 161.072C140.504 159.984 139.544 159.168 138.264 158.624C137.016 158.048 135.48 157.76 133.656 157.76H132.12V171.536H134.424C136.088 171.536 137.48 171.312 138.6 170.864C139.752 170.416 140.616 169.712 141.192 168.752C141.8 167.792 142.104 166.576 142.104 165.104ZM154.067 176V153.296H159.539V176H154.067ZM155.891 176V171.68H171.971V176H155.891ZM155.891 166.736V162.464H169.091V166.736H155.891ZM155.891 157.616V153.296H171.011V157.616H155.891ZM177.645 176V153.296H182.253L182.877 176H177.645ZM195.741 176H193.197L179.757 157.136V153.296H183.165L195.501 170.72L195.741 176ZM198.861 153.296V176H194.157L193.629 153.296H198.861ZM211.464 176V153.296H217.128V176H211.464ZM203.832 157.76V153.296H224.76V157.76H203.832ZM79.9364 214.364C77.8084 214.364 75.9698 213.981 74.4204 213.216C72.8711 212.432 71.6764 211.349 70.8364 209.968C70.0151 208.587 69.6044 206.981 69.6044 205.152C69.6044 203.715 69.8658 202.389 70.3884 201.176C70.9111 199.963 71.6391 198.917 72.5724 198.04C73.5244 197.144 74.6351 196.453 75.9044 195.968C77.1924 195.464 78.6018 195.212 80.1324 195.212C81.1778 195.212 82.2604 195.352 83.3804 195.632C84.5004 195.893 85.4898 196.323 86.3484 196.92L84.7804 200.14C83.8658 199.244 82.9231 198.637 81.9524 198.32C81.0004 198.003 80.1324 197.844 79.3484 197.844C78.0978 197.844 77.0338 198.133 76.1564 198.712C75.2791 199.272 74.6071 200.065 74.1404 201.092C73.6738 202.1 73.4404 203.267 73.4404 204.592C73.4404 206.011 73.7298 207.261 74.3084 208.344C74.9058 209.427 75.7364 210.276 76.8004 210.892C77.8644 211.489 79.1151 211.788 80.5524 211.788C81.3178 211.788 82.0831 211.713 82.8484 211.564C83.6138 211.396 84.3231 211.116 84.9764 210.724L83.1564 212.824V207.224H79.9364V204.648H86.4604V212.852C85.8258 213.188 85.1444 213.468 84.4164 213.692C83.6884 213.916 82.9418 214.084 82.1764 214.196C81.4298 214.308 80.6831 214.364 79.9364 214.364ZM90.5955 214V200.756H95.8035C97.4648 200.756 98.7528 201.092 99.6675 201.764C100.582 202.417 101.039 203.388 101.039 204.676C101.039 205.572 100.787 206.356 100.283 207.028C99.7981 207.681 99.0888 208.185 98.1555 208.54C97.2408 208.895 96.1301 209.072 94.8235 209.072H92.1635V206.804H95.3835C96.1861 206.804 96.8115 206.655 97.2595 206.356C97.7261 206.039 97.9595 205.619 97.9595 205.096C97.9595 204.536 97.7448 204.097 97.3155 203.78C96.8861 203.463 96.2888 203.304 95.5235 203.304H93.6475V214H90.5955ZM100.983 214.308C100.349 214.308 99.8168 214.196 99.3875 213.972C98.9581 213.748 98.5661 213.412 98.2115 212.964C97.8755 212.516 97.5021 211.947 97.0915 211.256L95.5795 208.68L98.1555 207.7L99.7515 210.052C100.162 210.649 100.489 211.107 100.731 211.424C100.974 211.723 101.189 211.928 101.375 212.04C101.562 212.152 101.767 212.208 101.991 212.208C102.122 212.208 102.253 212.199 102.383 212.18C102.533 212.161 102.654 212.143 102.747 212.124L103.083 213.944C102.673 214.075 102.299 214.168 101.963 214.224C101.627 214.28 101.301 214.308 100.983 214.308ZM103.927 214L109.051 200.756H112.887L118.039 214H114.651L110.479 202.156H111.291L107.343 214H103.927ZM106.699 210.416L107.455 208.036H113.783L114.903 210.416H106.699ZM125.15 214H120.838V200.756H125.486C126.998 200.756 128.342 201.027 129.518 201.568C130.712 202.109 131.646 202.865 132.318 203.836C133.008 204.788 133.354 205.908 133.354 207.196C133.354 208.484 132.999 209.641 132.29 210.668C131.58 211.695 130.61 212.507 129.378 213.104C128.146 213.701 126.736 214 125.15 214ZM129.938 207.644C129.938 206.711 129.751 205.927 129.378 205.292C129.004 204.657 128.444 204.181 127.698 203.864C126.97 203.528 126.074 203.36 125.01 203.36H124.114V211.396H125.458C126.428 211.396 127.24 211.265 127.894 211.004C128.566 210.743 129.07 210.332 129.406 209.772C129.76 209.212 129.938 208.503 129.938 207.644ZM136.916 214V200.756H140.108V214H136.916ZM137.98 214V211.48H147.36V214H137.98ZM137.98 208.596V206.104H145.68V208.596H137.98ZM137.98 203.276V200.756H146.8V203.276H137.98ZM150.67 214V200.756H153.862V214H150.67ZM151.734 208.904V206.356H159.462V208.904H151.734ZM151.734 203.304V200.756H160.582V203.304H151.734ZM163.904 214V200.756H167.208V214H163.904ZM164.968 214V211.396H174.488V214H164.968ZM183.212 214.196C181.887 214.196 180.692 213.897 179.628 213.3C178.583 212.703 177.762 211.9 177.164 210.892C176.567 209.884 176.268 208.764 176.268 207.532C176.268 206.263 176.576 205.105 177.192 204.06C177.808 202.996 178.658 202.147 179.74 201.512C180.842 200.877 182.092 200.56 183.492 200.56C184.818 200.56 186.003 200.859 187.048 201.456C188.112 202.035 188.943 202.837 189.54 203.864C190.156 204.872 190.464 206.02 190.464 207.308C190.464 208.652 190.138 209.847 189.484 210.892C188.831 211.919 187.954 212.731 186.852 213.328C185.751 213.907 184.538 214.196 183.212 214.196ZM183.548 211.76C184.239 211.76 184.836 211.592 185.34 211.256C185.844 210.92 186.236 210.444 186.516 209.828C186.796 209.212 186.936 208.475 186.936 207.616C186.936 206.683 186.768 205.871 186.432 205.18C186.115 204.489 185.676 203.957 185.116 203.584C184.556 203.192 183.912 202.996 183.184 202.996C182.531 202.996 181.943 203.164 181.42 203.5C180.916 203.836 180.515 204.321 180.216 204.956C179.936 205.572 179.796 206.319 179.796 207.196C179.796 208.111 179.955 208.913 180.272 209.604C180.608 210.295 181.056 210.827 181.616 211.2C182.176 211.573 182.82 211.76 183.548 211.76ZM196.642 214L192.554 200.756H195.97L199.218 213.3H197.902L200.59 200.756H203.054L199.862 214H196.642ZM204.818 214L201.598 200.756H204.118L207.562 213.3H206.218L208.766 200.756H212.07L207.982 214H204.818Z" fill="#F0B40C"/>
<path d="M63.9473 165.968L63.5569 166.28L63.5569 166.28L63.9473 165.968ZM61.8833 164.24L61.6212 164.666L61.6284 164.67L61.8833 164.24ZM59.1473 162.752L59.3651 162.302L59.3651 162.302L59.1473 162.752ZM56.1233 161.216L55.8829 161.654L55.8887 161.658L56.1233 161.216ZM53.3393 159.344L53.0163 159.726L53.0235 159.732L53.3393 159.344ZM51.9953 148.256L51.5836 147.972L51.5822 147.974L51.9953 148.256ZM55.8833 144.944L55.6704 144.492L55.6669 144.493L55.8833 144.944ZM65.2913 144.224L65.3873 143.733L65.3873 143.733L65.2913 144.224ZM69.2273 145.52L69.6938 145.7L69.8574 145.276L69.4509 145.073L69.2273 145.52ZM67.1153 150.992L66.7869 151.369L67.3249 151.838L67.5818 151.172L67.1153 150.992ZM63.6593 149.024L63.4875 149.494L63.4977 149.497L63.6593 149.024ZM57.7553 148.88L58.0327 149.296L58.0327 149.296L57.7553 148.88ZM56.5073 150.32L56.0502 150.117L56.045 150.13L56.5073 150.32ZM56.9393 153.92L56.5656 154.252L56.5656 154.252L56.9393 153.92ZM58.9553 155.552L58.6933 155.978L58.7028 155.984L58.7125 155.989L58.9553 155.552ZM61.7873 156.992L61.9995 156.539L61.9995 156.539L61.7873 156.992ZM64.8113 158.576L64.5602 159.008L64.5662 159.012L64.8113 158.576ZM67.5953 160.592L67.2562 160.959L67.2635 160.966L67.2711 160.973L67.5953 160.592ZM69.6593 163.184L69.215 163.413L69.2181 163.419L69.6593 163.184ZM68.8433 172.16L69.2496 172.451L69.2525 172.447L68.8433 172.16ZM64.6673 175.52L64.8664 175.979L64.8704 175.977L64.6673 175.52ZM53.3393 175.712L53.1761 176.185L53.1761 176.185L53.3393 175.712ZM49.0193 173.6L48.587 173.349L48.3584 173.742L48.7287 174.007L49.0193 173.6ZM51.9473 168.56L52.2684 168.177L51.8133 167.795L51.515 168.309L51.9473 168.56ZM55.9793 171.056L55.7753 171.513L55.7835 171.516L55.9793 171.056ZM63.4673 171.008L63.1531 170.619L63.1457 170.625L63.4673 171.008ZM65.2153 168.224C65.2153 167.253 64.9247 166.389 64.3377 165.656L63.5569 166.28C63.9939 166.827 64.2153 167.467 64.2153 168.224H65.2153ZM64.3377 165.656C63.7806 164.959 63.0428 164.346 62.1382 163.81L61.6284 164.67C62.4518 165.158 63.09 165.697 63.5569 166.28L64.3377 165.656ZM62.1454 163.814C61.2973 163.292 60.3704 162.788 59.3651 162.302L58.9295 163.202C59.9083 163.676 60.8053 164.164 61.6213 164.666L62.1454 163.814ZM59.3651 162.302C58.379 161.825 57.3766 161.316 56.3579 160.774L55.8887 161.658C56.918 162.204 57.9316 162.719 58.9295 163.202L59.3651 162.302ZM56.3637 160.778C55.398 160.248 54.4952 159.641 53.6551 158.956L53.0235 159.732C53.9114 160.455 54.8647 161.096 55.8829 161.654L56.3637 160.778ZM53.6623 158.962C52.8785 158.299 52.2467 157.517 51.7645 156.613L50.8821 157.083C51.424 158.099 52.1361 158.981 53.0163 159.726L53.6623 158.962ZM51.7645 156.613C51.2983 155.739 51.0553 154.687 51.0553 153.44H50.0553C50.0553 154.817 50.3243 156.037 50.8821 157.083L51.7645 156.613ZM51.0553 153.44C51.0553 151.472 51.5156 149.847 52.4084 148.538L51.5822 147.974C50.555 149.481 50.0553 151.312 50.0553 153.44H51.0553ZM52.4071 148.54C53.3488 147.173 54.577 146.126 56.0997 145.395L55.6669 144.493C53.9896 145.298 52.6258 146.459 51.5836 147.972L52.4071 148.54ZM56.0962 145.396C57.6563 144.662 59.3748 144.292 61.2593 144.292V143.292C59.2399 143.292 57.3744 143.69 55.6704 144.492L56.0962 145.396ZM61.2593 144.292C62.4367 144.292 63.7479 144.432 65.1953 144.715L65.3873 143.733C63.8907 143.44 62.514 143.292 61.2593 143.292V144.292ZM65.1953 144.715C66.6301 144.995 67.8981 145.414 69.0037 145.967L69.4509 145.073C68.2526 144.474 66.8965 144.029 65.3873 143.733L65.1953 144.715ZM68.7609 145.34L66.6489 150.812L67.5818 151.172L69.6938 145.7L68.7609 145.34ZM67.4437 150.615C66.4002 149.706 65.1908 149.019 63.8209 148.551L63.4977 149.497C64.7518 149.925 65.8464 150.55 66.7869 151.369L67.4437 150.615ZM63.8311 148.554C62.4808 148.06 61.2374 147.804 60.1073 147.804V148.804C61.0892 148.804 62.2138 149.028 63.4875 149.494L63.8311 148.554ZM60.1073 147.804C59.0574 147.804 58.1645 148.006 57.478 148.464L58.0327 149.296C58.4981 148.986 59.1732 148.804 60.1073 148.804V147.804ZM57.478 148.464C56.8312 148.895 56.3486 149.446 56.0504 150.117L56.9642 150.523C57.178 150.042 57.5275 149.633 58.0327 149.296L57.478 148.464ZM56.045 150.13C55.7998 150.725 55.6713 151.318 55.6713 151.904H56.6713C56.6713 151.466 56.7668 151.003 56.9697 150.51L56.045 150.13ZM55.6713 151.904C55.6713 152.795 55.9726 153.585 56.5656 154.252L57.313 153.588C56.8821 153.103 56.6713 152.549 56.6713 151.904H55.6713ZM56.5656 154.252C57.1174 154.873 57.8302 155.447 58.6933 155.978L59.2174 155.126C58.4164 154.633 57.7852 154.119 57.313 153.588L56.5656 154.252ZM58.7125 155.989C59.5878 156.475 60.5422 156.961 61.5751 157.445L61.9995 156.539C60.9845 156.063 60.0508 155.589 59.1981 155.115L58.7125 155.989ZM61.5751 157.445C62.5857 157.918 63.5807 158.44 64.5602 159.008L65.0624 158.144C64.0579 157.56 63.037 157.026 61.9995 156.539L61.5751 157.445ZM64.5662 159.012C65.5576 159.569 66.4538 160.219 67.2562 160.959L67.9345 160.225C67.0728 159.429 66.1131 158.735 65.0564 158.14L64.5662 159.012ZM67.2711 160.973C68.0864 161.667 68.7333 162.48 69.215 163.413L70.1036 162.955C69.5613 161.904 68.8322 160.989 67.9195 160.211L67.2711 160.973ZM69.2181 163.419C69.6835 164.292 69.9273 165.359 69.9273 166.64H70.9273C70.9273 165.233 70.6592 163.996 70.1005 162.949L69.2181 163.419ZM69.9273 166.64C69.9273 168.733 69.4208 170.467 68.4341 171.873L69.2525 172.447C70.3779 170.845 70.9273 168.899 70.9273 166.64H69.9273ZM68.437 171.869C67.4352 173.265 66.1147 174.33 64.4642 175.063L64.8704 175.977C66.6759 175.174 68.1394 173.999 69.2496 172.451L68.437 171.869ZM64.4683 175.061C62.8406 175.768 61.0531 176.124 59.0993 176.124V177.124C61.1775 177.124 63.1021 176.744 64.8664 175.979L64.4683 175.061ZM59.0993 176.124C57.0684 176.124 55.2043 175.827 53.5026 175.239L53.1761 176.185C54.9943 176.813 56.9702 177.124 59.0993 177.124V176.124ZM53.5026 175.239C51.7731 174.642 50.3798 173.957 49.3099 173.193L48.7287 174.007C49.8988 174.843 51.3855 175.566 53.1761 176.185L53.5026 175.239ZM49.4516 173.851L52.3796 168.811L51.515 168.309L48.587 173.349L49.4516 173.851ZM51.6262 168.943C52.8479 169.967 54.2319 170.823 55.7753 171.513L56.1833 170.599C54.7187 169.945 53.4147 169.137 52.2684 168.177L51.6262 168.943ZM55.7835 171.516C57.3411 172.179 58.8795 172.516 60.3953 172.516V171.516C59.0311 171.516 57.6255 171.213 56.1751 170.596L55.7835 171.516ZM60.3953 172.516C61.737 172.516 62.8821 172.153 63.7889 171.391L63.1457 170.625C62.4526 171.207 61.5496 171.516 60.3953 171.516V172.516ZM63.7815 171.397C64.7446 170.619 65.2153 169.541 65.2153 168.224H64.2153C64.2153 169.275 63.854 170.053 63.1531 170.619L63.7815 171.397ZM81.3856 176H80.8856V176.5H81.3856V176ZM81.3856 153.296V152.796H80.8856V153.296H81.3856ZM87.0496 153.296H87.5496V152.796H87.0496V153.296ZM87.0496 176V176.5H87.5496V176H87.0496ZM73.7536 157.76H73.2536V158.26H73.7536V157.76ZM73.7536 153.296V152.796H73.2536V153.296H73.7536ZM94.6816 153.296H95.1816V152.796H94.6816V153.296ZM94.6816 157.76V158.26H95.1816V157.76H94.6816ZM81.8856 176V153.296H80.8856V176H81.8856ZM81.3856 153.796H87.0496V152.796H81.3856V153.796ZM86.5496 153.296V176H87.5496V153.296H86.5496ZM87.0496 175.5H81.3856V176.5H87.0496V175.5ZM74.2536 157.76V153.296H73.2536V157.76H74.2536ZM73.7536 153.796H94.6816V152.796H73.7536V153.796ZM94.1816 153.296V157.76H95.1816V153.296H94.1816ZM94.6816 157.26H73.7536V158.26H94.6816V157.26ZM103.484 175.184L103.249 175.625L103.256 175.629L103.484 175.184ZM99.9796 171.824L100.412 171.574L100.412 171.574L99.9796 171.824ZM98.7316 153.296V152.796H98.2316V153.296H98.7316ZM104.396 153.296H104.896V152.796H104.396V153.296ZM105.788 170.576L105.402 170.895L105.408 170.901L105.788 170.576ZM112.988 170.72L113.388 171.02L113.388 171.02L112.988 170.72ZM114.14 153.296V152.796H113.64V153.296H114.14ZM119.804 153.296H120.304V152.796H119.804V153.296ZM118.412 171.2L117.975 170.956L117.973 170.959L118.412 171.2ZM114.572 174.992L114.335 174.552L114.331 174.554L114.572 174.992ZM108.812 175.836C106.826 175.836 105.131 175.464 103.711 174.739L103.256 175.629C104.844 176.44 106.701 176.836 108.812 176.836V175.836ZM103.718 174.743C102.295 173.985 101.196 172.931 100.412 171.574L99.5466 172.074C100.427 173.597 101.664 174.783 103.249 175.625L103.718 174.743ZM100.412 171.574C99.6301 170.22 99.2316 168.644 99.2316 166.832H98.2316C98.2316 168.796 98.665 170.548 99.5466 172.074L100.412 171.574ZM99.2316 166.832V153.296H98.2316V166.832H99.2316ZM98.7316 153.796H104.396V152.796H98.7316V153.796ZM103.896 153.296V165.872H104.896V153.296H103.896ZM103.896 165.872C103.896 167.96 104.376 169.656 105.403 170.895L106.173 170.257C105.343 169.256 104.896 167.816 104.896 165.872H103.896ZM105.408 170.901C106.47 172.14 107.876 172.756 109.58 172.756V171.756C108.147 171.756 107.026 171.252 106.167 170.251L105.408 170.901ZM109.58 172.756C111.21 172.756 112.508 172.193 113.388 171.02L112.588 170.42C111.931 171.295 110.957 171.756 109.58 171.756V172.756ZM113.388 171.02C114.244 169.878 114.64 168.317 114.64 166.4H113.64C113.64 168.195 113.267 169.514 112.588 170.42L113.388 171.02ZM114.64 166.4V153.296H113.64V166.4H114.64ZM114.14 153.796H119.804V152.796H114.14V153.796ZM119.304 153.296V165.44H120.304V153.296H119.304ZM119.304 165.44C119.304 167.543 118.856 169.377 117.975 170.956L118.848 171.444C119.823 169.695 120.304 167.689 120.304 165.44H119.304ZM117.973 170.959C117.124 172.505 115.915 173.701 114.335 174.552L114.809 175.432C116.556 174.491 117.907 173.159 118.85 171.441L117.973 170.959ZM114.331 174.554C112.785 175.402 110.951 175.836 108.812 175.836V176.836C111.088 176.836 113.094 176.374 114.812 175.43L114.331 174.554ZM126.504 176H126.004V176.5H126.504V176ZM126.504 153.296V152.796H126.004V153.296H126.504ZM141.384 154.688L141.175 155.142L141.178 155.143L141.384 154.688ZM146.184 158.576L145.773 158.861L145.779 158.87L146.184 158.576ZM146.136 170.288L146.547 170.572L146.547 170.572L146.136 170.288ZM138.264 158.624L138.055 159.078L138.061 159.081L138.068 159.084L138.264 158.624ZM132.12 157.76V157.26H131.62V157.76H132.12ZM132.12 171.536H131.62V172.036H132.12V171.536ZM138.6 170.864L138.419 170.398L138.414 170.4L138.6 170.864ZM141.192 168.752L140.77 168.484L140.763 168.495L141.192 168.752ZM133.896 175.5H126.504V176.5H133.896V175.5ZM127.004 176V153.296H126.004V176H127.004ZM126.504 153.796H134.472V152.796H126.504V153.796ZM134.472 153.796C137.004 153.796 139.235 154.249 141.175 155.142L141.593 154.234C139.501 153.271 137.124 152.796 134.472 152.796V153.796ZM141.178 155.143C143.153 156.038 144.678 157.279 145.773 158.861L146.595 158.291C145.386 156.545 143.711 155.194 141.59 154.233L141.178 155.143ZM145.779 158.87C146.895 160.408 147.46 162.223 147.46 164.336H148.46C148.46 162.033 147.841 160.008 146.589 158.282L145.779 158.87ZM147.46 164.336C147.46 166.446 146.881 168.33 145.725 170.004L146.547 170.572C147.823 168.726 148.46 166.642 148.46 164.336H147.46ZM145.725 170.004C144.562 171.686 142.968 173.024 140.926 174.014L141.362 174.914C143.544 173.856 145.278 172.41 146.547 170.572L145.725 170.004ZM140.926 174.014C138.892 175 136.552 175.5 133.896 175.5V176.5C136.68 176.5 139.172 175.976 141.362 174.914L140.926 174.014ZM142.604 165.104C142.604 163.438 142.271 162.001 141.575 160.818L140.713 161.326C141.297 162.319 141.604 163.57 141.604 165.104H142.604ZM141.575 160.818C140.875 159.629 139.828 158.745 138.46 158.164L138.068 159.084C139.26 159.591 140.133 160.339 140.713 161.326L141.575 160.818ZM138.474 158.17C137.142 157.555 135.53 157.26 133.656 157.26V158.26C135.43 158.26 136.89 158.541 138.055 159.078L138.474 158.17ZM133.656 157.26H132.12V158.26H133.656V157.26ZM131.62 157.76V171.536H132.62V157.76H131.62ZM132.12 172.036H134.424V171.036H132.12V172.036ZM134.424 172.036C136.129 172.036 137.589 171.807 138.786 171.328L138.414 170.4C137.371 170.817 136.047 171.036 134.424 171.036V172.036ZM138.781 171.33C140.025 170.846 140.982 170.074 141.621 169.009L140.763 168.495C140.25 169.35 139.479 169.986 138.419 170.398L138.781 171.33ZM141.614 169.02C142.286 167.959 142.604 166.643 142.604 165.104H141.604C141.604 166.509 141.314 167.625 140.77 168.484L141.614 169.02ZM154.067 176H153.567V176.5H154.067V176ZM154.067 153.296V152.796H153.567V153.296H154.067ZM159.539 153.296H160.039V152.796H159.539V153.296ZM159.539 176V176.5H160.039V176H159.539ZM155.891 176H155.391V176.5H155.891V176ZM155.891 171.68V171.18H155.391V171.68H155.891ZM171.971 171.68H172.471V171.18H171.971V171.68ZM171.971 176V176.5H172.471V176H171.971ZM155.891 166.736H155.391V167.236H155.891V166.736ZM155.891 162.464V161.964H155.391V162.464H155.891ZM169.091 162.464H169.591V161.964H169.091V162.464ZM169.091 166.736V167.236H169.591V166.736H169.091ZM155.891 157.616H155.391V158.116H155.891V157.616ZM155.891 153.296V152.796H155.391V153.296H155.891ZM171.011 153.296H171.511V152.796H171.011V153.296ZM171.011 157.616V158.116H171.511V157.616H171.011ZM154.567 176V153.296H153.567V176H154.567ZM154.067 153.796H159.539V152.796H154.067V153.796ZM159.039 153.296V176H160.039V153.296H159.039ZM159.539 175.5H154.067V176.5H159.539V175.5ZM156.391 176V171.68H155.391V176H156.391ZM155.891 172.18H171.971V171.18H155.891V172.18ZM171.471 171.68V176H172.471V171.68H171.471ZM171.971 175.5H155.891V176.5H171.971V175.5ZM156.391 166.736V162.464H155.391V166.736H156.391ZM155.891 162.964H169.091V161.964H155.891V162.964ZM168.591 162.464V166.736H169.591V162.464H168.591ZM169.091 166.236H155.891V167.236H169.091V166.236ZM156.391 157.616V153.296H155.391V157.616H156.391ZM155.891 153.796H171.011V152.796H155.891V153.796ZM170.511 153.296V157.616H171.511V153.296H170.511ZM171.011 157.116H155.891V158.116H171.011V157.116ZM177.645 176H177.145V176.5H177.645V176ZM177.645 153.296V152.796H177.145V153.296H177.645ZM182.253 153.296L182.752 153.282L182.739 152.796H182.253V153.296ZM182.877 176V176.5H183.391L183.376 175.986L182.877 176ZM195.741 176V176.5H196.264L196.24 175.977L195.741 176ZM193.197 176L192.789 176.29L192.939 176.5H193.197V176ZM179.757 157.136H179.257V157.296L179.349 157.426L179.757 157.136ZM179.757 153.296V152.796H179.257V153.296H179.757ZM183.165 153.296L183.573 153.007L183.423 152.796H183.165V153.296ZM195.501 170.72L196 170.697L195.994 170.551L195.909 170.431L195.501 170.72ZM198.861 153.296H199.361V152.796H198.861V153.296ZM198.861 176V176.5H199.361V176H198.861ZM194.157 176L193.657 176.012L193.668 176.5H194.157V176ZM193.629 153.296V152.796H193.117L193.129 153.308L193.629 153.296ZM178.145 176V153.296H177.145V176H178.145ZM177.645 153.796H182.253V152.796H177.645V153.796ZM181.753 153.31L182.377 176.014L183.376 175.986L182.752 153.282L181.753 153.31ZM182.877 175.5H177.645V176.5H182.877V175.5ZM195.741 175.5H193.197V176.5H195.741V175.5ZM193.604 175.71L180.164 156.846L179.349 157.426L192.789 176.29L193.604 175.71ZM180.257 157.136V153.296H179.257V157.136H180.257ZM179.757 153.796H183.165V152.796H179.757V153.796ZM182.757 153.585L195.093 171.009L195.909 170.431L183.573 153.007L182.757 153.585ZM195.001 170.743L195.241 176.023L196.24 175.977L196 170.697L195.001 170.743ZM198.361 153.296V176H199.361V153.296H198.361ZM198.861 175.5H194.157V176.5H198.861V175.5ZM194.657 175.988L194.129 153.284L193.129 153.308L193.657 176.012L194.657 175.988ZM193.629 153.796H198.861V152.796H193.629V153.796ZM211.464 176H210.964V176.5H211.464V176ZM211.464 153.296V152.796H210.964V153.296H211.464ZM217.128 153.296H217.628V152.796H217.128V153.296ZM217.128 176V176.5H217.628V176H217.128ZM203.832 157.76H203.332V158.26H203.832V157.76ZM203.832 153.296V152.796H203.332V153.296H203.832ZM224.76 153.296H225.26V152.796H224.76V153.296ZM224.76 157.76V158.26H225.26V157.76H224.76ZM211.964 176V153.296H210.964V176H211.964ZM211.464 153.796H217.128V152.796H211.464V153.796ZM216.628 153.296V176H217.628V153.296H216.628ZM217.128 175.5H211.464V176.5H217.128V175.5ZM204.332 157.76V153.296H203.332V157.76H204.332ZM203.832 153.796H224.76V152.796H203.832V153.796ZM224.26 153.296V157.76H225.26V153.296H224.26ZM224.76 157.26H203.832V158.26H224.76V157.26ZM74.4204 213.216L74.1947 213.662L74.199 213.664L74.4204 213.216ZM70.8364 209.968L70.4066 210.224L70.4092 210.228L70.8364 209.968ZM70.3884 201.176L69.9292 200.978L69.9292 200.978L70.3884 201.176ZM72.5724 198.04L72.9149 198.404L72.9151 198.404L72.5724 198.04ZM75.9044 195.968L76.083 196.435L76.0866 196.434L75.9044 195.968ZM83.3804 195.632L83.2592 196.117L83.2668 196.119L83.3804 195.632ZM86.3484 196.92L86.798 197.139L86.9854 196.754L86.634 196.51L86.3484 196.92ZM84.7804 200.14L84.4305 200.497L84.9262 200.983L85.23 200.359L84.7804 200.14ZM81.9524 198.32L81.7943 198.794L81.7971 198.795L81.9524 198.32ZM76.1564 198.712L76.4255 199.134L76.4317 199.129L76.1564 198.712ZM74.1404 201.092L74.5942 201.302L74.5956 201.299L74.1404 201.092ZM74.3084 208.344L73.8674 208.58L73.8706 208.586L74.3084 208.344ZM76.8004 210.892L76.5499 211.325L76.5557 211.328L76.8004 210.892ZM82.8484 211.564L82.9442 212.055L82.9556 212.052L82.8484 211.564ZM84.9764 210.724L85.3543 211.051L84.7192 210.295L84.9764 210.724ZM83.1564 212.824H82.6564V214.164L83.5343 213.151L83.1564 212.824ZM83.1564 207.224H83.6564V206.724H83.1564V207.224ZM79.9364 207.224H79.4364V207.724H79.9364V207.224ZM79.9364 204.648V204.148H79.4364V204.648H79.9364ZM86.4604 204.648H86.9604V204.148H86.4604V204.648ZM86.4604 212.852L86.6944 213.294L86.9604 213.153V212.852H86.4604ZM84.4164 213.692L84.5635 214.17L84.4164 213.692ZM82.1764 214.196L82.104 213.701L82.1023 213.702L82.1764 214.196ZM79.9364 213.864C77.8678 213.864 76.1083 213.492 74.6419 212.768L74.199 213.664C75.8313 214.471 77.7491 214.864 79.9364 214.864V213.864ZM74.6462 212.77C73.1737 212.025 72.0516 211.004 71.2636 209.708L70.4092 210.228C71.3013 211.695 72.5685 212.839 74.1947 213.662L74.6462 212.77ZM71.2662 209.712C70.4969 208.419 70.1044 206.904 70.1044 205.152H69.1044C69.1044 207.059 69.5333 208.755 70.4067 210.224L71.2662 209.712ZM70.1044 205.152C70.1044 203.777 70.3542 202.519 70.8476 201.374L69.9292 200.978C69.3774 202.259 69.1044 203.653 69.1044 205.152H70.1044ZM70.8476 201.374C71.3441 200.221 72.033 199.233 72.9149 198.404L72.23 197.676C71.2452 198.601 70.4781 199.704 69.9292 200.978L70.8476 201.374ZM72.9151 198.404C73.8178 197.555 74.8721 196.898 76.083 196.435L75.7259 195.501C74.3981 196.009 73.2311 196.733 72.2298 197.676L72.9151 198.404ZM76.0866 196.434C77.3107 195.955 78.6575 195.712 80.1324 195.712V194.712C78.5461 194.712 77.0742 194.973 75.7222 195.502L76.0866 196.434ZM80.1324 195.712C81.1329 195.712 82.1748 195.846 83.2592 196.117L83.5017 195.147C82.3461 194.858 81.2227 194.712 80.1324 194.712V195.712ZM83.2668 196.119C84.3313 196.367 85.2611 196.773 86.0629 197.33L86.634 196.51C85.7184 195.873 84.6695 195.419 83.4941 195.145L83.2668 196.119ZM85.8989 196.701L84.3309 199.921L85.23 200.359L86.798 197.139L85.8989 196.701ZM85.1303 199.783C84.1743 198.846 83.1677 198.191 82.1078 197.845L81.7971 198.795C82.6785 199.083 83.5572 199.642 84.4305 200.497L85.1303 199.783ZM82.1106 197.846C81.1211 197.516 80.1988 197.344 79.3484 197.344V198.344C80.0661 198.344 80.8798 198.489 81.7943 198.794L82.1106 197.846ZM79.3484 197.344C78.0188 197.344 76.8546 197.653 75.8811 198.295L76.4317 199.129C77.2129 198.614 78.1767 198.344 79.3484 198.344V197.344ZM75.8874 198.291C74.9218 198.907 74.1884 199.778 73.6853 200.885L74.5956 201.299C75.0258 200.353 75.6364 199.637 76.4255 199.133L75.8874 198.291ZM73.6867 200.882C73.1842 201.967 72.9404 203.208 72.9404 204.592H73.9404C73.9404 203.325 74.1633 202.233 74.5942 201.302L73.6867 200.882ZM72.9404 204.592C72.9404 206.08 73.2444 207.414 73.8675 208.58L74.7494 208.108C74.2151 207.109 73.9404 205.941 73.9404 204.592H72.9404ZM73.8706 208.586C74.5116 209.747 75.4068 210.663 76.5499 211.325L77.051 210.459C76.0661 209.889 75.2999 209.106 74.7462 208.102L73.8706 208.586ZM76.5557 211.328C77.7067 211.974 79.0447 212.288 80.5524 212.288V211.288C79.1855 211.288 78.0221 211.004 77.0452 210.456L76.5557 211.328ZM80.5524 212.288C81.3505 212.288 82.1479 212.21 82.9442 212.055L82.7527 211.073C82.0183 211.217 81.285 211.288 80.5524 211.288V212.288ZM82.9556 212.052C83.7724 211.873 84.5326 211.573 85.2337 211.153L84.7192 210.295C84.1136 210.659 83.4552 210.919 82.7412 211.076L82.9556 212.052ZM84.5986 210.397L82.7786 212.497L83.5343 213.151L85.3543 211.051L84.5986 210.397ZM83.6564 212.824V207.224H82.6564V212.824H83.6564ZM83.1564 206.724H79.9364V207.724H83.1564V206.724ZM80.4364 207.224V204.648H79.4364V207.224H80.4364ZM79.9364 205.148H86.4604V204.148H79.9364V205.148ZM85.9604 204.648V212.852H86.9604V204.648H85.9604ZM86.2265 212.41C85.6212 212.731 84.9692 212.999 84.2694 213.214L84.5635 214.17C85.3197 213.937 86.0303 213.645 86.6944 213.294L86.2265 212.41ZM84.2694 213.214C83.5662 213.43 82.8445 213.593 82.104 213.701L82.2488 214.691C83.0391 214.575 83.8107 214.402 84.5635 214.17L84.2694 213.214ZM82.1023 213.702C81.3799 213.81 80.658 213.864 79.9364 213.864V214.864C80.7082 214.864 81.4797 214.806 82.2506 214.69L82.1023 213.702ZM90.5955 214H90.0955V214.5H90.5955V214ZM90.5955 200.756V200.256H90.0955V200.756H90.5955ZM99.6675 201.764L99.3714 202.167L99.3769 202.171L99.6675 201.764ZM100.283 207.028L99.8835 206.728L99.8821 206.73L100.283 207.028ZM98.1555 208.54L97.9779 208.073L97.9747 208.074L98.1555 208.54ZM92.1635 209.072H91.6635V209.572H92.1635V209.072ZM92.1635 206.804V206.304H91.6635V206.804H92.1635ZM97.2595 206.356L97.5368 206.772L97.5406 206.769L97.2595 206.356ZM97.3155 203.78L97.0183 204.182L97.0183 204.182L97.3155 203.78ZM93.6475 203.304V202.804H93.1475V203.304H93.6475ZM93.6475 214V214.5H94.1475V214H93.6475ZM99.3875 213.972L99.6188 213.529L99.3875 213.972ZM98.2115 212.964L97.8113 213.264L97.8194 213.274L98.2115 212.964ZM97.0915 211.256L96.6603 211.509L96.6617 211.512L97.0915 211.256ZM95.5795 208.68L95.4017 208.213L94.8489 208.423L95.1483 208.933L95.5795 208.68ZM98.1555 207.7L98.5692 207.419L98.3472 207.092L97.9777 207.233L98.1555 207.7ZM99.7515 210.052L99.3377 210.333L99.3394 210.335L99.7515 210.052ZM100.731 211.424L100.334 211.728L100.339 211.734L100.343 211.739L100.731 211.424ZM101.375 212.04L101.633 211.611L101.633 211.611L101.375 212.04ZM102.383 212.18L102.321 211.684L102.313 211.685L102.383 212.18ZM102.747 212.124L103.239 212.033L103.147 211.534L102.649 211.634L102.747 212.124ZM103.083 213.944L103.235 214.42L103.655 214.287L103.575 213.853L103.083 213.944ZM101.963 214.224L102.046 214.717L102.046 214.717L101.963 214.224ZM91.0955 214V200.756H90.0955V214H91.0955ZM90.5955 201.256H95.8035V200.256H90.5955V201.256ZM95.8035 201.256C97.4056 201.256 98.5741 201.581 99.3714 202.167L99.9635 201.361C98.9315 200.603 97.524 200.256 95.8035 200.256V201.256ZM99.3769 202.171C100.14 202.716 100.539 203.522 100.539 204.676H101.539C101.539 203.254 101.025 202.119 99.9581 201.357L99.3769 202.171ZM100.539 204.676C100.539 205.471 100.318 206.148 99.8835 206.728L100.683 207.328C101.257 206.564 101.539 205.673 101.539 204.676H100.539ZM99.8821 206.73C99.4654 207.291 98.8423 207.744 97.9779 208.073L98.3331 209.007C99.3353 208.627 100.131 208.072 100.685 207.326L99.8821 206.73ZM97.9747 208.074C97.1333 208.4 96.0876 208.572 94.8235 208.572V209.572C96.1726 209.572 97.3483 209.389 98.3362 209.006L97.9747 208.074ZM94.8235 208.572H92.1635V209.572H94.8235V208.572ZM92.6635 209.072V206.804H91.6635V209.072H92.6635ZM92.1635 207.304H95.3835V206.304H92.1635V207.304ZM95.3835 207.304C96.2393 207.304 96.9756 207.146 97.5368 206.772L96.9821 205.94C96.6474 206.163 96.133 206.304 95.3835 206.304V207.304ZM97.5406 206.769C98.1313 206.368 98.4595 205.799 98.4595 205.096H97.4595C97.4595 205.438 97.321 205.71 96.9783 205.943L97.5406 206.769ZM98.4595 205.096C98.4595 204.386 98.1767 203.795 97.6127 203.378L97.0183 204.182C97.3129 204.4 97.4595 204.686 97.4595 205.096H98.4595ZM97.6127 203.378C97.0672 202.975 96.351 202.804 95.5235 202.804V203.804C96.2266 203.804 96.7051 203.951 97.0183 204.182L97.6127 203.378ZM95.5235 202.804H93.6475V203.804H95.5235V202.804ZM93.1475 203.304V214H94.1475V203.304H93.1475ZM93.6475 213.5H90.5955V214.5H93.6475V213.5ZM100.983 213.808C100.405 213.808 99.958 213.706 99.6188 213.529L99.1562 214.415C99.6756 214.686 100.292 214.808 100.983 214.808V213.808ZM99.6188 213.529C99.2619 213.343 98.9223 213.056 98.6035 212.654L97.8194 213.274C98.21 213.768 98.6543 214.153 99.1562 214.415L99.6188 213.529ZM98.6115 212.664C98.2897 212.235 97.9263 211.682 97.5212 211L96.6617 211.512C97.0779 212.212 97.4613 212.797 97.8115 213.264L98.6115 212.664ZM97.5227 211.003L96.0107 208.427L95.1483 208.933L96.6603 211.509L97.5227 211.003ZM95.7573 209.147L98.3333 208.167L97.9777 207.233L95.4017 208.213L95.7573 209.147ZM97.7417 207.981L99.3377 210.333L100.165 209.771L98.5692 207.419L97.7417 207.981ZM99.3394 210.335C99.7517 210.935 100.084 211.4 100.334 211.728L101.129 211.12C100.894 210.813 100.573 210.364 100.163 209.769L99.3394 210.335ZM100.343 211.739C100.599 212.054 100.857 212.312 101.118 212.469L101.633 211.611C101.52 211.544 101.349 211.391 101.12 211.109L100.343 211.739ZM101.118 212.469C101.385 212.629 101.68 212.708 101.991 212.708V211.708C101.855 211.708 101.739 211.675 101.633 211.611L101.118 212.469ZM101.991 212.708C102.146 212.708 102.3 212.697 102.454 212.675L102.313 211.685C102.205 211.7 102.098 211.708 101.991 211.708V212.708ZM102.445 212.676C102.601 212.657 102.735 212.636 102.846 212.614L102.649 211.634C102.573 211.649 102.465 211.666 102.321 211.684L102.445 212.676ZM102.256 212.215L102.592 214.035L103.575 213.853L103.239 212.033L102.256 212.215ZM102.932 213.468C102.538 213.593 102.189 213.68 101.881 213.731L102.046 214.717C102.41 214.656 102.807 214.557 103.235 214.42L102.932 213.468ZM101.881 213.731C101.57 213.783 101.271 213.808 100.983 213.808V214.808C101.33 214.808 101.684 214.777 102.046 214.717L101.881 213.731ZM103.927 214L103.461 213.82L103.198 214.5H103.927V214ZM109.051 200.756V200.256H108.709L108.585 200.576L109.051 200.756ZM112.887 200.756L113.353 200.575L113.229 200.256H112.887V200.756ZM118.039 214V214.5H118.77L118.505 213.819L118.039 214ZM114.651 214L114.18 214.166L114.297 214.5H114.651V214ZM110.479 202.156V201.656H109.773L110.008 202.322L110.479 202.156ZM111.291 202.156L111.766 202.314L111.985 201.656H111.291V202.156ZM107.343 214V214.5H107.704L107.818 214.158L107.343 214ZM106.699 210.416L106.223 210.265L106.016 210.916H106.699V210.416ZM107.455 208.036V207.536H107.089L106.979 207.885L107.455 208.036ZM113.783 208.036L114.236 207.823L114.1 207.536H113.783V208.036ZM114.903 210.416V210.916H115.691L115.356 210.203L114.903 210.416ZM104.394 214.18L109.518 200.936L108.585 200.576L103.461 213.82L104.394 214.18ZM109.051 201.256H112.887V200.256H109.051V201.256ZM112.421 200.937L117.573 214.181L118.505 213.819L113.353 200.575L112.421 200.937ZM118.039 213.5H114.651V214.5H118.039V213.5ZM115.123 213.834L110.951 201.99L110.008 202.322L114.18 214.166L115.123 213.834ZM110.479 202.656H111.291V201.656H110.479V202.656ZM110.817 201.998L106.869 213.842L107.818 214.158L111.766 202.314L110.817 201.998ZM107.343 213.5H103.927V214.5H107.343V213.5ZM107.176 210.567L107.932 208.187L106.979 207.885L106.223 210.265L107.176 210.567ZM107.455 208.536H113.783V207.536H107.455V208.536ZM113.331 208.249L114.451 210.629L115.356 210.203L114.236 207.823L113.331 208.249ZM114.903 209.916H106.699V210.916H114.903V209.916ZM120.838 214H120.338V214.5H120.838V214ZM120.838 200.756V200.256H120.338V200.756H120.838ZM129.518 201.568L129.309 202.022L129.311 202.023L129.518 201.568ZM132.318 203.836L131.906 204.121L131.913 204.13L132.318 203.836ZM132.29 210.668L132.701 210.952L132.701 210.952L132.29 210.668ZM129.378 213.104L129.596 213.554L129.378 213.104ZM127.698 203.864L127.488 204.318L127.495 204.321L127.502 204.324L127.698 203.864ZM124.114 203.36V202.86H123.614V203.36H124.114ZM124.114 211.396H123.614V211.896H124.114V211.396ZM127.894 211.004L127.712 210.538L127.708 210.54L127.894 211.004ZM129.406 209.772L128.983 209.504L128.977 209.515L129.406 209.772ZM125.15 213.5H120.838V214.5H125.15V213.5ZM121.338 214V200.756H120.338V214H121.338ZM120.838 201.256H125.486V200.256H120.838V201.256ZM125.486 201.256C126.938 201.256 128.208 201.516 129.309 202.022L129.727 201.114C128.475 200.538 127.058 200.256 125.486 200.256V201.256ZM129.311 202.023C130.433 202.532 131.292 203.232 131.907 204.121L132.729 203.551C132 202.498 130.992 201.687 129.724 201.113L129.311 202.023ZM131.913 204.13C132.536 204.988 132.854 206.003 132.854 207.196H133.854C133.854 205.813 133.481 204.588 132.722 203.542L131.913 204.13ZM132.854 207.196C132.854 208.386 132.528 209.443 131.878 210.384L132.701 210.952C133.47 209.839 133.854 208.582 133.854 207.196H132.854ZM131.878 210.384C131.223 211.333 130.322 212.091 129.16 212.654L129.596 213.554C130.898 212.923 131.938 212.057 132.701 210.952L131.878 210.384ZM129.16 212.654C128.006 213.214 126.673 213.5 125.15 213.5V214.5C126.8 214.5 128.286 214.189 129.596 213.554L129.16 212.654ZM130.438 207.644C130.438 206.645 130.238 205.768 129.809 205.038L128.947 205.546C129.264 206.085 129.438 206.776 129.438 207.644H130.438ZM129.809 205.038C129.375 204.302 128.728 203.759 127.893 203.404L127.502 204.324C128.161 204.604 128.633 205.013 128.947 205.546L129.809 205.038ZM127.907 203.41C127.096 203.035 126.123 202.86 125.01 202.86V203.86C126.024 203.86 126.844 204.021 127.488 204.318L127.907 203.41ZM125.01 202.86H124.114V203.86H125.01V202.86ZM123.614 203.36V211.396H124.614V203.36H123.614ZM124.114 211.896H125.458V210.896H124.114V211.896ZM125.458 211.896C126.469 211.896 127.349 211.76 128.079 211.468L127.708 210.54C127.131 210.77 126.387 210.896 125.458 210.896V211.896ZM128.075 211.47C128.839 211.173 129.435 210.694 129.834 210.029L128.977 209.515C128.704 209.97 128.292 210.312 127.712 210.538L128.075 211.47ZM129.828 210.04C130.246 209.379 130.438 208.57 130.438 207.644H129.438C129.438 208.435 129.274 209.045 128.983 209.504L129.828 210.04ZM136.916 214H136.416V214.5H136.916V214ZM136.916 200.756V200.256H136.416V200.756H136.916ZM140.108 200.756H140.608V200.256H140.108V200.756ZM140.108 214V214.5H140.608V214H140.108ZM137.98 214H137.48V214.5H137.98V214ZM137.98 211.48V210.98H137.48V211.48H137.98ZM147.36 211.48H147.86V210.98H147.36V211.48ZM147.36 214V214.5H147.86V214H147.36ZM137.98 208.596H137.48V209.096H137.98V208.596ZM137.98 206.104V205.604H137.48V206.104H137.98ZM145.68 206.104H146.18V205.604H145.68V206.104ZM145.68 208.596V209.096H146.18V208.596H145.68ZM137.98 203.276H137.48V203.776H137.98V203.276ZM137.98 200.756V200.256H137.48V200.756H137.98ZM146.8 200.756H147.3V200.256H146.8V200.756ZM146.8 203.276V203.776H147.3V203.276H146.8ZM137.416 214V200.756H136.416V214H137.416ZM136.916 201.256H140.108V200.256H136.916V201.256ZM139.608 200.756V214H140.608V200.756H139.608ZM140.108 213.5H136.916V214.5H140.108V213.5ZM138.48 214V211.48H137.48V214H138.48ZM137.98 211.98H147.36V210.98H137.98V211.98ZM146.86 211.48V214H147.86V211.48H146.86ZM147.36 213.5H137.98V214.5H147.36V213.5ZM138.48 208.596V206.104H137.48V208.596H138.48ZM137.98 206.604H145.68V205.604H137.98V206.604ZM145.18 206.104V208.596H146.18V206.104H145.18ZM145.68 208.096H137.98V209.096H145.68V208.096ZM138.48 203.276V200.756H137.48V203.276H138.48ZM137.98 201.256H146.8V200.256H137.98V201.256ZM146.3 200.756V203.276H147.3V200.756H146.3ZM146.8 202.776H137.98V203.776H146.8V202.776ZM150.67 214H150.17V214.5H150.67V214ZM150.67 200.756V200.256H150.17V200.756H150.67ZM153.862 200.756H154.362V200.256H153.862V200.756ZM153.862 214V214.5H154.362V214H153.862ZM151.734 208.904H151.234V209.404H151.734V208.904ZM151.734 206.356V205.856H151.234V206.356H151.734ZM159.462 206.356H159.962V205.856H159.462V206.356ZM159.462 208.904V209.404H159.962V208.904H159.462ZM151.734 203.304H151.234V203.804H151.734V203.304ZM151.734 200.756V200.256H151.234V200.756H151.734ZM160.582 200.756H161.082V200.256H160.582V200.756ZM160.582 203.304V203.804H161.082V203.304H160.582ZM151.17 214V200.756H150.17V214H151.17ZM150.67 201.256H153.862V200.256H150.67V201.256ZM153.362 200.756V214H154.362V200.756H153.362ZM153.862 213.5H150.67V214.5H153.862V213.5ZM152.234 208.904V206.356H151.234V208.904H152.234ZM151.734 206.856H159.462V205.856H151.734V206.856ZM158.962 206.356V208.904H159.962V206.356H158.962ZM159.462 208.404H151.734V209.404H159.462V208.404ZM152.234 203.304V200.756H151.234V203.304H152.234ZM151.734 201.256H160.582V200.256H151.734V201.256ZM160.082 200.756V203.304H161.082V200.756H160.082ZM160.582 202.804H151.734V203.804H160.582V202.804ZM163.904 214H163.404V214.5H163.904V214ZM163.904 200.756V200.256H163.404V200.756H163.904ZM167.208 200.756H167.708V200.256H167.208V200.756ZM167.208 214V214.5H167.708V214H167.208ZM164.968 214H164.468V214.5H164.968V214ZM164.968 211.396V210.896H164.468V211.396H164.968ZM174.488 211.396H174.988V210.896H174.488V211.396ZM174.488 214V214.5H174.988V214H174.488ZM164.404 214V200.756H163.404V214H164.404ZM163.904 201.256H167.208V200.256H163.904V201.256ZM166.708 200.756V214H167.708V200.756H166.708ZM167.208 213.5H163.904V214.5H167.208V213.5ZM165.468 214V211.396H164.468V214H165.468ZM164.968 211.896H174.488V210.896H164.968V211.896ZM173.988 211.396V214H174.988V211.396H173.988ZM174.488 213.5H164.968V214.5H174.488V213.5ZM179.628 213.3L179.38 213.734L179.384 213.736L179.628 213.3ZM177.164 210.892L176.734 211.147L176.734 211.147L177.164 210.892ZM177.192 204.06L177.623 204.314L177.625 204.311L177.192 204.06ZM179.74 201.512L179.491 201.079L179.488 201.081L179.74 201.512ZM187.048 201.456L186.8 201.89L186.81 201.895L187.048 201.456ZM189.54 203.864L189.108 204.116L189.114 204.125L189.54 203.864ZM189.484 210.892L189.906 211.16L189.908 211.157L189.484 210.892ZM186.852 213.328L187.085 213.771L187.091 213.768L186.852 213.328ZM185.34 211.256L185.063 210.84L185.063 210.84L185.34 211.256ZM186.516 209.828L186.972 210.035L186.972 210.035L186.516 209.828ZM186.432 205.18L185.978 205.389L185.983 205.399L186.432 205.18ZM185.116 203.584L184.83 203.994L184.839 204L185.116 203.584ZM181.42 203.5L181.15 203.079L181.143 203.084L181.42 203.5ZM180.216 204.956L179.764 204.743L179.761 204.749L180.216 204.956ZM180.272 209.604L179.818 209.813L179.823 209.823L180.272 209.604ZM181.616 211.2L181.339 211.616L181.339 211.616L181.616 211.2ZM183.212 213.696C181.965 213.696 180.856 213.416 179.873 212.864L179.384 213.736C180.529 214.379 181.809 214.696 183.212 214.696V213.696ZM179.877 212.866C178.904 212.31 178.147 211.568 177.595 210.637L176.734 211.147C177.377 212.232 178.262 213.095 179.38 213.734L179.877 212.866ZM177.595 210.637C177.045 209.71 176.768 208.679 176.768 207.532H175.768C175.768 208.849 176.089 210.058 176.734 211.147L177.595 210.637ZM176.768 207.532C176.768 206.348 177.055 205.279 177.623 204.314L176.762 203.806C176.098 204.932 175.768 206.178 175.768 207.532H176.768ZM177.625 204.311C178.197 203.323 178.984 202.535 179.993 201.943L179.488 201.081C178.332 201.758 177.42 202.669 176.76 203.809L177.625 204.311ZM179.99 201.945C181.008 201.359 182.171 201.06 183.492 201.06V200.06C182.014 200.06 180.676 200.396 179.491 201.079L179.99 201.945ZM183.492 201.06C184.74 201.06 185.838 201.34 186.8 201.89L187.297 201.022C186.168 200.377 184.896 200.06 183.492 200.06V201.06ZM186.81 201.895C187.795 202.431 188.558 203.17 189.108 204.115L189.973 203.613C189.328 202.505 188.43 201.638 187.287 201.017L186.81 201.895ZM189.114 204.125C189.678 205.047 189.964 206.103 189.964 207.308H190.964C190.964 205.937 190.635 204.697 189.967 203.603L189.114 204.125ZM189.964 207.308C189.964 208.567 189.66 209.668 189.06 210.627L189.908 211.157C190.616 210.025 190.964 208.737 190.964 207.308H189.964ZM189.063 210.624C188.456 211.576 187.643 212.33 186.614 212.888L187.091 213.768C188.265 213.131 189.206 212.261 189.906 211.16L189.063 210.624ZM186.62 212.885C185.595 213.424 184.462 213.696 183.212 213.696V214.696C184.613 214.696 185.907 214.389 187.085 213.771L186.62 212.885ZM183.548 212.26C184.324 212.26 185.021 212.07 185.618 211.672L185.063 210.84C184.652 211.114 184.155 211.26 183.548 211.26V212.26ZM185.618 211.672C186.208 211.278 186.658 210.726 186.972 210.035L186.061 209.621C185.815 210.162 185.481 210.562 185.063 210.84L185.618 211.672ZM186.972 210.035C187.288 209.339 187.436 208.527 187.436 207.616H186.436C186.436 208.422 186.305 209.085 186.061 209.621L186.972 210.035ZM187.436 207.616C187.436 206.623 187.258 205.733 186.882 204.961L185.983 205.399C186.279 206.008 186.436 206.742 186.436 207.616H187.436ZM186.887 204.971C186.536 204.208 186.04 203.599 185.394 203.168L184.839 204C185.312 204.316 185.694 204.771 185.978 205.389L186.887 204.971ZM185.403 203.174C184.754 202.72 184.008 202.496 183.184 202.496V203.496C183.817 203.496 184.359 203.664 184.83 203.994L185.403 203.174ZM183.184 202.496C182.44 202.496 181.758 202.689 181.15 203.079L181.691 203.921C182.129 203.639 182.622 203.496 183.184 203.496V202.496ZM181.143 203.084C180.552 203.478 180.095 204.039 179.764 204.743L180.669 205.169C180.935 204.603 181.281 204.194 181.698 203.916L181.143 203.084ZM179.761 204.749C179.444 205.446 179.296 206.268 179.296 207.196H180.296C180.296 206.37 180.429 205.698 180.672 205.163L179.761 204.749ZM179.296 207.196C179.296 208.168 179.465 209.045 179.818 209.813L180.727 209.395C180.445 208.782 180.296 208.053 180.296 207.196H179.296ZM179.823 209.823C180.192 210.582 180.695 211.187 181.339 211.616L181.894 210.784C181.418 210.467 181.025 210.008 180.722 209.385L179.823 209.823ZM181.339 211.616C181.988 212.049 182.73 212.26 183.548 212.26V211.26C182.911 211.26 182.365 211.098 181.894 210.784L181.339 211.616ZM196.642 214L196.164 214.147L196.273 214.5H196.642V214ZM192.554 200.756V200.256H191.876L192.076 200.903L192.554 200.756ZM195.97 200.756L196.454 200.631L196.357 200.256H195.97V200.756ZM199.218 213.3V213.8H199.863L199.702 213.175L199.218 213.3ZM197.902 213.3L197.413 213.195L197.283 213.8H197.902V213.3ZM200.59 200.756V200.256H200.185L200.101 200.651L200.59 200.756ZM203.054 200.756L203.54 200.873L203.688 200.256H203.054V200.756ZM199.862 214V214.5H200.255L200.348 214.117L199.862 214ZM204.818 214L204.332 214.118L204.425 214.5H204.818V214ZM201.598 200.756V200.256H200.961L201.112 200.874L201.598 200.756ZM204.118 200.756L204.6 200.624L204.499 200.256H204.118V200.756ZM207.562 213.3V213.8H208.217L208.044 213.168L207.562 213.3ZM206.218 213.3L205.728 213.2L205.606 213.8H206.218V213.3ZM208.766 200.756V200.256H208.357L208.276 200.656L208.766 200.756ZM212.07 200.756L212.547 200.903L212.747 200.256H212.07V200.756ZM207.982 214V214.5H208.35L208.459 214.147L207.982 214ZM197.119 213.853L193.031 200.609L192.076 200.903L196.164 214.147L197.119 213.853ZM192.554 201.256H195.97V200.256H192.554V201.256ZM195.485 200.881L198.733 213.425L199.702 213.175L196.454 200.631L195.485 200.881ZM199.218 212.8H197.902V213.8H199.218V212.8ZM198.39 213.405L201.078 200.861L200.101 200.651L197.413 213.195L198.39 213.405ZM200.59 201.256H203.054V200.256H200.59V201.256ZM202.567 200.639L199.375 213.883L200.348 214.117L203.54 200.873L202.567 200.639ZM199.862 213.5H196.642V214.5H199.862V213.5ZM205.303 213.882L202.083 200.638L201.112 200.874L204.332 214.118L205.303 213.882ZM201.598 201.256H204.118V200.256H201.598V201.256ZM203.635 200.888L207.079 213.432L208.044 213.168L204.6 200.624L203.635 200.888ZM207.562 212.8H206.218V213.8H207.562V212.8ZM206.708 213.4L209.256 200.856L208.276 200.656L205.728 213.2L206.708 213.4ZM208.766 201.256H212.07V200.256H208.766V201.256ZM211.592 200.609L207.504 213.853L208.459 214.147L212.547 200.903L211.592 200.609ZM207.982 213.5H204.818V214.5H207.982V213.5Z" fill="#F0B40C"/>
</svg>
