<svg width="474" height="396" viewBox="0 0 474 396" fill="none" xmlns="http://www.w3.org/2000/svg">
<path d="M462.95 95.2699L453.38 141.62L447.219 135.61L436.74 143.09L428.729 133.14L410.77 146.2L395.419 120.53L378.299 130.56L371.51 121.2L349.77 133.45L343.229 119.44L358.469 45.6299L440.169 62.4999L462.95 95.2699Z" fill="#EBEBEB"/>
<path d="M440.169 62.5L462.949 95.27L434.609 89.42L440.169 62.5Z" fill="#DBDBDB"/>
<path d="M451.34 150.88L437.31 218.88L327.26 196.16L341.19 128.71L347.73 142.71L369.48 130.46L376.26 139.82L393.39 129.8L408.73 155.47L426.7 142.41L434.7 152.35L445.19 144.88L451.34 150.88Z" fill="#EBEBEB"/>
<path d="M293.83 142.91L181.68 149.85L172.77 5.88998L256.05 0.72998L286.62 26.38L293.83 142.91Z" fill="#EBEBEB"/>
<path d="M256.05 0.72998L286.62 26.38L257.74 28.17L256.05 0.72998Z" fill="#DBDBDB"/>
<path d="M225 97.5999L224.56 94.3499C223.43 87.6199 225.27 80.0899 231.12 72.2199C236.4 65.2199 239.26 60.2199 238.94 54.5399C238.58 48.1399 234.33 44.0999 226.42 44.4199C221.899 44.6546 217.557 46.259 213.97 49.0199L210.52 41.2899C214.52 38.0399 221.52 35.6399 228.17 35.2899C242.6 34.4899 249.62 43.0299 250.17 52.5599C250.65 61.0899 246.23 67.4999 240.61 74.9899C235.45 81.8199 233.76 87.4499 234.49 93.8199L234.8 97.0799L225 97.5999ZM223.22 115.31C222.96 110.67 225.91 107.23 230.3 106.99C234.69 106.75 237.89 109.83 238.15 114.48C238.39 118.87 235.7 122.41 231.06 122.67C226.63 122.92 223.43 119.7 223.18 115.31H223.22Z" fill="#DBDBDB"/>
<path d="M454.38 236.71L446.86 241.05L448.19 243.35C448.389 243.68 448.488 244.06 448.475 244.445C448.463 244.83 448.339 245.203 448.12 245.52C447.89 245.88 447.67 246.25 447.47 246.64C447.306 246.985 447.046 247.276 446.722 247.478C446.397 247.68 446.022 247.785 445.64 247.78H443V256.47H445.66C446.042 256.465 446.417 256.57 446.742 256.772C447.066 256.974 447.326 257.265 447.49 257.61C447.69 258 447.91 258.37 448.14 258.73C448.359 259.047 448.483 259.42 448.495 259.805C448.507 260.19 448.409 260.57 448.21 260.9L446.88 263.2L454.4 267.54L455.74 265.23C455.934 264.902 456.216 264.635 456.553 264.459C456.89 264.282 457.27 264.203 457.65 264.23H458.93C459.31 264.204 459.689 264.284 460.026 264.46C460.363 264.637 460.645 264.903 460.84 265.23L462.18 267.55L469.69 263.21L468.36 260.9C468.171 260.568 468.078 260.19 468.092 259.809C468.106 259.427 468.227 259.057 468.44 258.74C468.67 258.38 468.89 258 469.09 257.62C469.254 257.275 469.514 256.984 469.838 256.782C470.163 256.58 470.538 256.475 470.92 256.48H473.58V247.79H470.9C470.518 247.795 470.143 247.69 469.818 247.488C469.494 247.286 469.234 246.995 469.07 246.65C468.87 246.27 468.65 245.89 468.42 245.53C468.207 245.213 468.086 244.843 468.072 244.461C468.058 244.08 468.151 243.702 468.34 243.37L469.67 241.06L462.16 236.72L460.82 239C460.626 239.328 460.344 239.595 460.007 239.771C459.67 239.948 459.29 240.027 458.91 240H458.27H457.63C457.249 240.026 456.868 239.946 456.53 239.769C456.191 239.593 455.907 239.327 455.71 239L454.38 236.71ZM458.27 245.01C459.679 245.008 461.057 245.424 462.229 246.206C463.402 246.987 464.316 248.099 464.856 249.401C465.396 250.702 465.538 252.134 465.264 253.517C464.989 254.899 464.311 256.168 463.315 257.165C462.318 258.161 461.049 258.839 459.667 259.114C458.284 259.388 456.852 259.246 455.551 258.706C454.249 258.166 453.137 257.252 452.356 256.079C451.574 254.907 451.158 253.529 451.16 252.12C451.159 251.185 451.342 250.26 451.698 249.396C452.055 248.532 452.579 247.747 453.239 247.086C453.899 246.425 454.684 245.9 455.547 245.542C456.41 245.184 457.335 245 458.27 245V245.01Z" fill="#EBEBEB"/>
<path d="M228.87 395.369C355.271 395.369 457.74 384.141 457.74 370.29C457.74 356.44 355.271 345.211 228.87 345.211C102.469 345.211 0 356.44 0 370.29C0 384.141 102.469 395.369 228.87 395.369Z" fill="#EBEBEB"/>
<path d="M372.32 377.05H67.6396L111.69 127.2H416.37L372.32 377.05Z" fill="#FFC727"/>
<path d="M215.969 101.32H116.259L111.689 127.2H218.399L215.969 101.32Z" fill="#FFC727"/>
<g opacity="0.1">
<path d="M372.32 377.05H67.6396L111.69 127.2H416.37L372.32 377.05Z" fill="black"/>
<path d="M215.969 101.32H116.259L111.689 127.2H218.399L215.969 101.32Z" fill="black"/>
</g>
<path d="M105.5 111.88C104.833 109.019 104.833 106.042 105.5 103.18C106.167 106.042 106.167 109.019 105.5 111.88Z" fill="#263238"/>
<path d="M96.6393 114.44C95.6211 113.384 94.7438 112.201 94.0293 110.92C93.2799 109.666 92.6919 108.322 92.2793 106.92C93.3005 107.97 94.1781 109.15 94.8893 110.43C95.6371 111.689 96.2249 113.036 96.6393 114.44Z" fill="#263238"/>
<path d="M90.24 121.09C87.43 120.236 84.8538 118.747 82.71 116.74C84.1119 117.147 85.4561 117.732 86.71 118.48C87.9911 119.199 89.177 120.076 90.24 121.09Z" fill="#263238"/>
<path d="M87.9998 130.05C85.1381 130.717 82.1615 130.717 79.2998 130.05C82.1615 129.383 85.1381 129.383 87.9998 130.05Z" fill="#263238"/>
<path d="M90.6001 138.91C89.5398 139.923 88.3573 140.8 87.0801 141.52C85.8262 142.268 84.482 142.853 83.0801 143.26C84.1359 142.242 85.3191 141.365 86.6001 140.65C87.8521 139.899 89.1968 139.314 90.6001 138.91Z" fill="#263238"/>
<path d="M97.2396 145.3C96.3883 148.114 94.8998 150.694 92.8896 152.84C93.2968 151.436 93.8851 150.092 94.6396 148.84C95.3525 147.554 96.2262 146.365 97.2396 145.3Z" fill="#263238"/>
<path d="M106.2 147.51C106.549 148.933 106.717 150.395 106.7 151.86C106.722 153.326 106.553 154.788 106.2 156.21C105.842 154.789 105.673 153.326 105.7 151.86C105.683 150.395 105.851 148.933 106.2 147.51Z" fill="#263238"/>
<path d="M115.06 145C116.078 146.056 116.955 147.239 117.67 148.52C118.421 149.772 119.006 151.117 119.41 152.52C117.399 150.374 115.911 147.794 115.06 144.98V145Z" fill="#263238"/>
<path d="M121.449 138.3C122.853 138.704 124.197 139.289 125.449 140.04C126.73 140.755 127.913 141.632 128.969 142.65C127.566 142.246 126.221 141.661 124.969 140.91C123.688 140.196 122.505 139.318 121.449 138.3Z" fill="#263238"/>
<path d="M123.66 129.34C126.525 128.673 129.505 128.673 132.37 129.34C129.505 130.007 126.525 130.007 123.66 129.34Z" fill="#263238"/>
<path d="M121.1 120.48C122.159 119.468 123.341 118.594 124.62 117.88C125.87 117.122 127.215 116.533 128.62 116.13C126.474 118.14 123.894 119.629 121.08 120.48H121.1Z" fill="#263238"/>
<path d="M114.449 114.09C114.861 112.69 115.445 111.346 116.189 110.09C116.904 108.809 117.781 107.626 118.799 106.57C118.395 107.973 117.811 109.318 117.059 110.57C116.345 111.851 115.467 113.034 114.449 114.09Z" fill="#263238"/>
<path d="M371.87 377.05H66.5397L23.1797 136.27H328.52L371.87 377.05Z" fill="#FFC727"/>
<path d="M128.99 283.46C135.998 283.46 141.68 277.779 141.68 270.77C141.68 263.762 135.998 258.08 128.99 258.08C121.981 258.08 116.3 263.762 116.3 270.77C116.3 277.779 121.981 283.46 128.99 283.46Z" fill="#263238"/>
<path d="M229.31 283.46C236.319 283.46 242 277.779 242 270.77C242 263.762 236.319 258.08 229.31 258.08C222.302 258.08 216.62 263.762 216.62 270.77C216.62 277.779 222.302 283.46 229.31 283.46Z" fill="#263238"/>
<path d="M197.38 285.49L196.68 284.16C196.62 284.04 190.06 271.92 176.87 271.92C164.87 271.92 161.87 283.33 161.79 283.82L161.43 285.27L158.52 284.57L158.87 283.11C158.87 282.97 162.45 268.92 176.87 268.92C191.87 268.92 199.04 282.2 199.34 282.77L200.04 284.09L197.38 285.49Z" fill="#263238"/>
<path d="M351.71 269.8L351.5 268.8C352.15 268.66 352.79 268.51 353.43 268.34L353.68 269.34C353 269.51 352.37 269.66 351.71 269.8Z" fill="#263238"/>
<path d="M357.55 268.19L357.23 267.25C358.48 266.82 359.73 266.35 360.94 265.84L361.33 266.76C360.1 267.28 358.83 267.76 357.55 268.19ZM365 265L364.55 264.12C365.72 263.51 366.89 262.85 368 262.12L368.52 262.97C367.38 263.76 366.19 264.43 365 265ZM371.88 260.77L371.29 259.96C372.37 259.17 373.41 258.34 374.39 257.49L375.05 258.24C374 259.15 373 260 371.87 260.81L371.88 260.77ZM377.98 255.45L377.25 254.76C378.17 253.76 379.04 252.76 379.84 251.76L380.63 252.37C379.8 253.47 378.91 254.5 378 255.49L377.98 255.45ZM382.93 249.05L382.08 248.52C382.771 247.403 383.386 246.24 383.92 245.04L384.84 245.45C384.274 246.701 383.633 247.917 382.92 249.09L382.93 249.05ZM386.24 241.63L385.24 241.35C385.605 240.095 385.876 238.815 386.05 237.52L387.05 237.65C386.884 239.01 386.61 240.354 386.23 241.67L386.24 241.63ZM387.35 233.63H386.35V233.34C386.35 232.13 386.28 230.9 386.16 229.69L387.16 229.59C387.291 230.836 387.358 232.087 387.36 233.34L387.35 233.63ZM385.55 225.8C385.281 224.511 384.947 223.236 384.55 221.98L385.55 221.68C385.96 222.98 386.31 224.3 386.55 225.59L385.55 225.8ZM383.18 218.27C382.7 217.09 382.18 215.88 381.54 214.66L382.44 214.21C383.05 215.45 383.61 216.69 384.1 217.89L383.18 218.27ZM379.68 211.14C379.06 210.05 378.38 208.9 377.68 207.72L378.53 207.19C379.26 208.38 379.95 209.54 380.53 210.65L379.68 211.14ZM375.5 204.35C374.77 203.25 374.03 202.14 373.27 201.03L374.1 200.47C374.86 201.58 375.6 202.69 376.33 203.81L375.5 204.35ZM371 197.73C370.25 196.63 369.49 195.52 368.75 194.42L369.58 193.86C370.32 194.96 371.07 196.07 371.82 197.16L371 197.73ZM366.53 191.07C365.8 189.95 365.09 188.81 364.39 187.67L365.24 187.15C365.94 188.29 366.65 189.41 367.37 190.53L366.53 191.07ZM362.36 184.2C361.68 182.99 361.05 181.79 360.48 180.64L361.38 180.19C361.94 181.33 362.57 182.51 363.23 183.71L362.36 184.2ZM358.81 177C358.28 175.75 357.81 174.48 357.37 173.24L358.37 172.92C358.79 174.13 359.26 175.38 359.78 176.61L358.81 177ZM356.21 169.37C355.88 168.07 355.59 166.74 355.37 165.37L356.37 165.21C356.59 166.49 356.86 167.79 357.19 169.07L356.21 169.37ZM354.87 161.37C354.77 160.14 354.72 158.9 354.72 157.66V157.33H355.72V157.65C355.72 158.86 355.72 160.08 355.87 161.28L354.87 161.37ZM355.87 153.37L354.87 153.27C354.87 153 354.92 152.72 354.95 152.43C355.07 151.36 355.22 150.29 355.4 149.27L356.4 149.44C356.23 150.44 356.08 151.49 355.96 152.54C356 152.85 356 153.12 355.92 153.4L355.87 153.37ZM357.26 145.59L356.26 145.32C356.63 144 357.06 142.71 357.54 141.48L358.47 141.84C358.015 143.078 357.628 144.34 357.31 145.62L357.26 145.59ZM407.09 139.76C406.53 139.76 405.95 139.68 405.38 139.6C404.6 139.49 403.82 139.36 403.05 139.21L403.25 138.21C403.99 138.35 404.76 138.48 405.52 138.59C406.06 138.66 406.61 138.71 407.14 138.74L407.09 139.76ZM411.2 139.45L410.99 138.45C412.245 138.191 413.448 137.725 414.55 137.07L415.07 137.92C413.892 138.649 412.601 139.176 411.25 139.48L411.2 139.45ZM360.14 138.26L359.25 137.79C359.887 136.597 360.591 135.442 361.36 134.33L362.18 134.9C361.449 135.989 360.784 137.121 360.19 138.29L360.14 138.26ZM399.14 138.2C397.849 137.791 396.58 137.313 395.34 136.77L395.75 135.85C396.952 136.384 398.184 136.848 399.44 137.24L399.14 138.2ZM418.14 135.08L417.31 134.52C418.022 133.487 418.443 132.282 418.53 131.03L419.53 131.1C419.445 132.535 418.975 133.92 418.17 135.11L418.14 135.08ZM391.74 134.93C390.569 134.25 389.438 133.505 388.35 132.7L388.94 131.9C389.999 132.681 391.1 133.402 392.24 134.06L391.74 134.93ZM364.64 131.81L363.9 131.14C364.805 130.133 365.77 129.181 366.79 128.29L367.45 129.04C366.469 129.918 365.54 130.853 364.67 131.84L364.64 131.81ZM385.23 130.12C384.234 129.203 383.289 128.231 382.4 127.21L383.15 126.55C384.015 127.542 384.933 128.487 385.9 129.38L385.23 130.12ZM417.78 127.41C417.207 126.267 416.415 125.248 415.45 124.41L416.11 123.66C417.172 124.579 418.045 125.697 418.68 126.95L417.78 127.41ZM370.56 126.62L369.99 125.8C371.109 125.036 372.267 124.332 373.46 123.69L373.93 124.57C372.781 125.205 371.666 125.899 370.59 126.65L370.56 126.62ZM379.9 124.02C379.52 123.48 379.15 122.93 378.8 122.36L377.5 122.87L377.12 121.95L378.27 121.49C378.09 121.19 377.91 120.89 377.74 120.59L378.61 120.1C378.81 120.45 379.01 120.8 379.22 121.1C379.78 120.9 380.35 120.71 380.93 120.53L381.22 121.53C380.73 121.68 380.22 121.84 379.76 122.01C380.07 122.5 380.39 123.01 380.76 123.44L379.9 124.02ZM412.23 122.3C411.262 121.818 410.259 121.41 409.23 121.08L408.57 120.87L408.86 119.87L409.54 120.09C410.611 120.432 411.654 120.856 412.66 121.36L412.23 122.3ZM385.05 120.51L384.84 119.51C386.13 119.22 387.47 118.98 388.84 118.79L388.99 119.79C387.67 120 386.36 120.25 385.08 120.54L385.05 120.51ZM404.75 119.97C403.5 119.75 402.18 119.58 400.83 119.46L400.91 118.46C402.3 118.58 403.65 118.75 404.91 118.98L404.75 119.97ZM392.9 119.39L392.83 118.39C394.02 118.32 395.21 118.28 396.39 118.28H396.88V119.28H396.4C395.27 119.31 394.09 119.34 392.93 119.42L392.9 119.39ZM376 117C375.46 115.78 375 114.51 374.55 113.22L375.55 112.91C375.97 114.17 376.44 115.41 376.96 116.6L376 117ZM373.47 109.32C373.17 108.03 372.92 106.69 372.73 105.32L373.73 105.18C373.92 106.5 374.16 107.81 374.45 109.08L373.47 109.32ZM372.35 101.32C372.3 100.42 372.27 99.5001 372.27 98.5801C372.27 98.1501 372.27 97.7101 372.27 97.2801H373.27C373.27 97.7101 373.27 98.1301 373.27 98.5601C373.27 99.4601 373.27 100.37 373.34 101.24L372.35 101.32ZM373.54 93.3201L372.54 93.2201C372.68 91.9001 372.87 90.5501 373.1 89.2201L374.1 89.3901C373.83 90.7201 373.64 92.0001 373.51 93.3401L373.54 93.3201ZM374.91 85.5101L373.91 85.2701C374.23 83.9801 374.6 82.6801 375.01 81.3801L376.01 81.6901C375.56 83.0001 375.19 84.2701 374.88 85.5301L374.91 85.5101ZM377.31 77.9401L376.38 77.5801C376.87 76.3301 377.38 75.0801 377.99 73.8701L378.89 74.3101C378.29 75.5101 377.76 76.7301 377.28 78.0001L377.31 77.9401ZM380.75 70.8101L379.88 70.3001C380.56 69.1501 381.29 68.0001 382.05 66.9001L382.87 67.4701C382.09 68.5701 381.38 69.6901 380.72 70.8301L380.75 70.8101ZM385.26 64.3001L384.48 63.6701C385.32 62.6701 386.22 61.6101 387.15 60.6701L387.87 61.3601C386.93 62.3001 386.05 63.3001 385.23 64.3201L385.26 64.3001ZM390.7 58.5401L390.03 57.8001C391.03 56.9101 392.03 56.0301 393.1 55.1801L393.72 55.9701C392.65 56.8201 391.63 57.6901 390.67 58.5601L390.7 58.5401ZM396.91 53.6001L396.34 52.7701C397.43 52.0201 398.57 51.2801 399.73 50.5801L400.24 51.4301C399.08 52.1401 398 52.8701 396.88 53.6201L396.91 53.6001ZM403.7 49.4701L403.23 48.5901C404.41 47.9601 405.63 47.3601 406.85 46.8001L407.27 47.7101C406 48.2801 404.83 48.8801 403.67 49.4901L403.7 49.4701ZM410.93 46.1501L410.56 45.2101C411.82 44.7201 413.09 44.2101 414.35 43.8401L414.67 44.8401C413.4 45.2201 412.14 45.6801 410.9 46.1701L410.93 46.1501Z" fill="#263238"/>
<path d="M418.64 43.6202L418.39 42.6202C419.63 42.3002 420.39 42.1602 420.39 42.1602L420.57 43.1602C420.57 43.1602 419.85 43.3102 418.64 43.6202Z" fill="#263238"/>
<path d="M436.32 37.1601C433.77 29.2601 416.69 32.1001 420.02 42.4301C423.35 52.7601 438.87 45.0701 436.32 37.1601Z" fill="#263238"/>
<path d="M410.73 34.0001C410.86 30.5301 415.68 27.8601 422.5 29.0901C429.32 30.3201 435.73 34.9201 435.73 34.9201C435.73 34.9201 429 39.0001 422.11 39.7501C415.22 40.5001 410.6 37.4601 410.73 34.0001Z" fill="#EBEBEB"/>
<path d="M435.73 34.9001C432.19 34.9001 428.66 34.8001 425.13 34.6901C421.6 34.5801 418.06 34.4001 414.53 34.1201C418.07 34.1201 421.61 34.2101 425.14 34.3201C428.67 34.4301 432.21 34.6101 435.73 34.9001Z" fill="#263238"/>
<path d="M417.58 30.9102C419.59 31.8716 421.485 33.0557 423.23 34.4402C422.224 33.9682 421.249 33.4338 420.31 32.8401C419.363 32.2505 418.452 31.6061 417.58 30.9102Z" fill="#263238"/>
<path d="M426.85 34.5701C425.041 36.0362 423.08 37.3035 421 38.3501C422.818 36.8821 424.79 35.6148 426.88 34.5701H426.85Z" fill="#263238"/>
<path d="M427.88 32.6201C428.889 33.1047 429.772 33.8166 430.46 34.7001C429.955 34.462 429.482 34.1631 429.05 33.8101C428.616 33.4593 428.223 33.0601 427.88 32.6201Z" fill="#263238"/>
<path d="M417.23 54.5502C419.36 57.2902 424.83 56.6302 429.64 51.6502C434.45 46.6702 437 39.1802 437 39.1802C437 39.1802 429.12 39.7802 423.11 43.1802C417.1 46.5802 415.09 51.8002 417.23 54.5502Z" fill="#EBEBEB"/>
<path d="M437 39.1802C434.12 41.1802 431.32 43.4002 428.51 45.5502C425.7 47.7002 422.95 49.9202 420.26 52.2102C423.14 50.2102 425.94 48.0002 428.74 45.8502C431.54 43.7002 434.27 41.4802 437 39.1802Z" fill="#263238"/>
<path d="M424.58 53.0001C425.115 52.0287 425.592 51.027 426.01 50.0001C426.436 48.9703 426.796 47.9149 427.09 46.8401C426.554 47.8106 426.076 48.8124 425.66 49.8401C425.239 50.8714 424.878 51.9266 424.58 53.0001Z" fill="#263238"/>
<path d="M430 44.6402C427.66 44.5151 425.314 44.6391 423 45.0102C424.166 45.0801 425.334 45.0801 426.5 45.0102C427.673 44.953 428.841 44.8294 430 44.6402Z" fill="#263238"/>
<path d="M431.93 45.6302C432.197 45.1363 432.405 44.6127 432.55 44.0702C432.698 43.5316 432.785 42.9781 432.81 42.4202C432.278 43.4101 431.977 44.5075 431.93 45.6302Z" fill="#263238"/>
<path d="M436.32 37.16C435.755 37.3434 435.149 37.355 434.577 37.1935C434.006 37.032 433.495 36.7045 433.11 36.2526C432.725 35.8007 432.483 35.2446 432.414 34.6548C432.345 34.0651 432.453 33.4681 432.723 32.9396C432.994 32.411 433.415 31.9746 433.934 31.6857C434.453 31.3968 435.045 31.2683 435.637 31.3166C436.229 31.3648 436.793 31.5876 437.258 31.9567C437.724 32.3258 438.069 32.8246 438.25 33.39C438.493 34.1459 438.426 34.9671 438.064 35.6737C437.702 36.3804 437.075 36.9148 436.32 37.16Z" fill="#455A64"/>
<path d="M438.16 42.8702C437.595 43.0528 436.99 43.064 436.419 42.9023C435.848 42.7407 435.338 42.4134 434.953 41.9619C434.568 41.5104 434.326 40.9549 434.257 40.3657C434.188 39.7765 434.295 39.18 434.564 38.6517C434.834 38.1233 435.255 37.6868 435.772 37.3973C436.29 37.1078 436.882 36.9783 437.474 37.0253C438.065 37.0722 438.629 37.2934 439.095 37.661C439.561 38.0285 439.907 38.5259 440.09 39.0902C440.212 39.4651 440.258 39.8603 440.227 40.2532C440.196 40.6461 440.087 41.029 439.908 41.3801C439.729 41.7311 439.482 42.0434 439.182 42.2991C438.882 42.5548 438.535 42.7488 438.16 42.8702Z" fill="#455A64"/>
<path d="M354.91 70.7775C354.431 75.3707 352.685 79.7403 349.866 83.3989C347.048 87.0574 343.269 89.8609 338.95 91.4965C334.632 93.1321 329.943 93.5355 325.409 92.6616C320.874 91.7877 316.671 89.6709 313.27 86.5475L300.8 88.3775L307.04 77.5975C305.613 74.0899 305.004 70.3032 305.26 66.5251C305.515 62.7469 306.628 59.0767 308.515 55.7932C310.401 52.5097 313.011 49.6993 316.146 47.5754C319.281 45.4515 322.859 44.0701 326.608 43.536C330.357 43.0019 334.178 43.3292 337.782 44.493C341.385 45.6568 344.676 47.6266 347.404 50.2526C350.133 52.8787 352.226 56.092 353.527 59.6484C354.828 63.2049 355.3 67.0109 354.91 70.7775Z" fill="white"/>
<path d="M354.91 70.7774C354.441 75.3682 352.71 79.7396 349.91 83.4074C348.542 85.2625 346.892 86.8922 345.02 88.2374C343.189 89.6331 341.169 90.7611 339.02 91.5874C336.87 92.4342 334.611 92.9728 332.31 93.1875C331.16 93.2907 330.004 93.3141 328.85 93.2575C327.692 93.2277 326.539 93.1073 325.4 92.8974C320.804 92.0519 316.535 89.9431 313.07 86.8074L313.36 86.8974L300.91 88.8074L300 88.9474L300.46 88.1474L306.66 77.3474V77.7774C305.197 74.2051 304.575 70.3441 304.842 66.493C305.109 62.6419 306.258 58.9037 308.2 55.5674C310.14 52.2416 312.806 49.3974 316 47.2474C319.189 45.126 322.816 43.7541 326.611 43.2345C330.405 42.715 334.268 43.0613 337.91 44.2474C341.513 45.4732 344.796 47.4891 347.52 50.1474C350.238 52.7992 352.315 56.0351 353.596 59.6096C354.876 63.1841 355.326 67.0033 354.91 70.7774ZM354.91 70.7774C355.314 67.0219 354.85 63.2238 353.553 59.6762C352.256 56.1287 350.161 52.9266 347.43 50.3173C344.699 47.708 341.405 45.7612 337.802 44.6273C334.199 43.4934 330.383 43.2026 326.65 43.7774C322.954 44.3245 319.434 45.7136 316.36 47.8374C313.313 49.978 310.767 52.7555 308.9 55.9774C307.061 59.2065 305.978 62.8099 305.73 66.5174C305.487 70.2501 306.088 73.9895 307.49 77.4574L307.58 77.6774L307.46 77.8874L301.18 88.6474L300.74 87.9874L313.22 86.2374H313.39L313.51 86.3474C316.846 89.4525 320.98 91.568 325.45 92.4574C326.564 92.6844 327.694 92.8215 328.83 92.8675C329.965 92.9474 331.105 92.9474 332.24 92.8675C334.517 92.684 336.758 92.1894 338.9 91.3974C341.047 90.6157 343.069 89.5241 344.9 88.1574C346.764 86.8231 348.416 85.2149 349.8 83.3874C352.636 79.7374 354.405 75.3724 354.91 70.7774Z" fill="#263238"/>
<path d="M317.94 79.8074C317.92 79.4763 317.969 79.1448 318.084 78.8335C318.198 78.5222 318.375 78.2377 318.604 77.9976C318.833 77.7576 319.108 77.5671 319.414 77.438C319.719 77.309 320.048 77.2441 320.38 77.2474C321.059 77.2474 321.71 77.5171 322.19 77.9972C322.67 78.4773 322.94 79.1284 322.94 79.8074C322.94 80.4863 322.67 81.1375 322.19 81.6176C321.71 82.0977 321.059 82.3674 320.38 82.3674C320.048 82.3707 319.719 82.3058 319.414 82.1767C319.108 82.0477 318.833 81.8572 318.604 81.6171C318.375 81.3771 318.198 81.0926 318.084 80.7812C317.969 80.4699 317.92 80.1384 317.94 79.8074ZM318.94 73.8974L318.36 54.0574H322.36L321.78 73.8974H318.94Z" fill="#FFC727"/>
<path d="M327.45 79.8074C327.431 79.4772 327.48 79.1465 327.594 78.8359C327.707 78.5252 327.883 78.2412 328.111 78.0013C328.339 77.7614 328.613 77.5707 328.918 77.441C329.222 77.3114 329.55 77.2455 329.88 77.2474C330.559 77.2474 331.21 77.5171 331.691 77.9972C332.171 78.4773 332.44 79.1284 332.44 79.8074C332.44 80.4863 332.171 81.1375 331.691 81.6176C331.21 82.0977 330.559 82.3674 329.88 82.3674C329.55 82.3693 329.222 82.3034 328.918 82.1737C328.613 82.0441 328.339 81.8534 328.111 81.6135C327.883 81.3736 327.707 81.0895 327.594 80.7789C327.48 80.4682 327.431 80.1376 327.45 79.8074ZM328.45 73.8974L327.9 54.0574H331.9L331.32 73.8974H328.45Z" fill="#FFC727"/>
<path d="M336.95 79.8074C336.931 79.4763 336.98 79.1448 337.094 78.8335C337.209 78.5222 337.386 78.2377 337.615 77.9976C337.843 77.7576 338.119 77.5671 338.425 77.438C338.73 77.309 339.059 77.2441 339.39 77.2474C340.069 77.2474 340.72 77.5171 341.201 77.9972C341.681 78.4773 341.95 79.1284 341.95 79.8074C341.95 80.4863 341.681 81.1375 341.201 81.6176C340.72 82.0977 340.069 82.3674 339.39 82.3674C339.059 82.3707 338.73 82.3058 338.425 82.1767C338.119 82.0477 337.843 81.8572 337.615 81.6171C337.386 81.3771 337.209 81.0926 337.094 80.7812C336.98 80.4699 336.931 80.1384 336.95 79.8074ZM337.95 73.8974L337.37 54.0574H341.37L340.8 73.8974H337.95Z" fill="#FFC727"/>
</svg>
