<svg width="437" height="392" viewBox="0 0 437 392" fill="none" xmlns="http://www.w3.org/2000/svg">
<path d="M16.7469 201.375L21.4187 181.178L5.75 167.594L26.45 165.797L34.5 146.75L42.55 165.797L63.25 167.594L47.5812 181.178L52.2531 201.375L34.5 190.666L16.7469 201.375Z" fill="#FFA963"/>
<path d="M90.7469 113.375L95.4187 93.1781L79.75 79.5938L100.45 77.7969L108.5 58.75L116.55 77.7969L137.25 79.5938L121.581 93.1781L126.253 113.375L108.5 102.666L90.7469 113.375Z" fill="#FFA963"/>
<path d="M212.747 67.375L217.419 47.1781L201.75 33.5938L222.45 31.7969L230.5 12.75L238.55 31.7969L259.25 33.5938L243.581 47.1781L248.253 67.375L230.5 56.6656L212.747 67.375Z" fill="#FFA963"/>
<path d="M349.747 113.375L354.419 93.1781L338.75 79.5938L359.45 77.7969L367.5 58.75L375.55 77.7969L396.25 79.5938L380.581 93.1781L385.253 113.375L367.5 102.666L349.747 113.375Z" fill="#FFA963"/>
<path d="M384.747 201.375L389.419 181.178L373.75 167.594L394.45 165.797L402.5 146.75L410.55 165.797L431.25 167.594L415.581 181.178L420.253 201.375L402.5 190.666L384.747 201.375Z" fill="#FFA963"/>
<path d="M168.523 365.682L171.107 384.156C171.495 386.933 174.078 389 177.179 389H259.985C263.086 389 265.669 386.933 266.057 384.156L268.641 365.682H168.523Z" fill="#D6D6D4"/>
<path d="M258.112 389L264.119 387.45L268.511 365.682H168.523L169.492 372.787H252.04C252.105 372.787 252.105 372.787 252.17 372.787C263.99 372.787 258.112 389 258.112 389Z" fill="#BABABA"/>
<path d="M278.523 359.417L301.13 178.883H135.905L158.512 359.417C158.964 362.97 162.064 365.682 165.746 365.682H271.354C275.035 365.682 278.071 363.034 278.523 359.417Z" fill="#5EB173"/>
<path opacity="0.34" d="M213.931 326.669C212.316 326.669 211.089 325.829 210.637 325.506C209.216 324.344 208.376 322.406 208.312 320.081C208.182 317.239 209.216 314.461 211.024 312.717C211.541 312.265 213.027 310.779 214.965 310.779C215.158 310.779 215.352 310.779 215.546 310.844C216.838 311.038 218 311.877 218.905 313.299C220.326 315.43 220.778 318.337 220.196 320.791C219.486 323.633 217.096 326.669 214.06 326.734L213.931 326.669ZM214.577 317.755C213.996 319.112 214.125 319.951 214.319 320.145C214.319 320.145 214.383 320.145 214.383 320.21C214.448 320.145 214.577 319.951 214.706 319.628C214.9 318.983 214.771 318.272 214.577 317.755Z" fill="#60A06C"/>
<path opacity="0.34" d="M221.424 334.678C220.584 334.678 219.745 334.42 219.099 333.968C217.678 332.999 217.742 331.707 218.13 326.992C218.388 324.021 218.776 319.435 219.099 312.33C219.099 311.942 219.163 311.619 219.163 311.232C219.099 311.232 219.099 311.232 219.034 311.232C218.905 311.232 218.711 311.232 218.582 311.232C218.065 311.296 217.549 311.296 217.032 311.296C216.45 311.296 215.934 311.361 215.417 311.425C215.223 311.425 215.029 311.49 214.836 311.49C214.448 311.555 214.125 311.555 213.867 311.555C213.285 311.555 212.833 311.361 212.446 310.973C211.089 309.617 212.575 306.71 213.673 305.612C214.577 304.772 215.805 304.32 217.29 304.32C218.13 304.32 219.099 304.449 220.261 304.708C220.972 302.641 222.005 301.155 223.297 300.251C223.814 299.863 225.235 298.895 227.108 298.895C227.366 298.895 227.625 298.895 227.883 298.959C228.271 299.024 229.498 299.218 230.531 300.186C231.5 301.155 231.759 302.447 231.759 303.351C232.275 303.158 232.792 303.028 233.438 303.028C233.696 303.028 233.89 303.028 234.149 303.093C234.536 303.158 235.634 303.287 236.538 304.256C238.024 305.741 237.637 307.873 237.572 308.26L237.314 309.358C237.507 309.294 237.701 309.165 237.83 309.035C238.218 308.648 238.476 308.067 238.541 307.227L238.735 304.579L242.029 307.679L242.158 307.873C242.739 309.035 242.352 310.521 240.995 312.2C240.026 313.428 238.153 314.009 235.311 314.009C234.472 314.009 233.503 313.944 232.469 313.815C232.082 316.98 232.146 320.468 232.146 320.468C232.211 321.76 232.211 322.987 232.275 324.021C232.469 329.769 232.534 332.095 230.725 333.451C230.079 333.903 229.24 334.162 228.4 334.162C227.625 334.162 226.914 333.968 226.268 333.516C225.622 333.064 225.3 332.611 225.17 331.707C224.912 332.482 224.46 333.064 223.814 333.58C223.297 334.355 222.393 334.678 221.424 334.678ZM225.816 312.653C225.558 315.882 225.622 318.983 225.622 318.983C225.687 320.468 225.687 321.825 225.752 323.052C225.752 323.569 225.816 324.021 225.816 324.473C226.01 322.083 226.204 318.983 226.398 314.849C226.398 314.138 226.462 313.492 226.527 312.846C226.268 312.782 226.075 312.717 225.816 312.653ZM234.149 309.488C234.924 309.617 235.57 309.746 236.086 309.746C236.28 309.746 236.474 309.746 236.668 309.681L235.828 309.229C235.57 309.1 235.311 309.035 235.117 309.035C235.053 309.035 234.988 309.035 234.924 309.035C234.859 309.035 234.472 309.165 234.149 309.488ZM227.819 307.356C228.142 306.581 228.594 305.87 229.046 305.354C228.981 305.354 228.981 305.354 228.917 305.354C228.852 305.354 228.723 305.354 228.658 305.354C228.658 305.354 228.012 305.483 227.366 306.193C227.237 306.323 227.043 306.581 226.85 307.033C226.979 307.033 227.625 307.291 227.819 307.356Z" fill="#60A06C"/>
<path opacity="0.34" d="M236.022 328.284C234.536 328.284 233.244 327.832 232.405 326.992C231.177 325.765 230.725 323.504 231.306 320.92C231.888 318.078 233.761 314.267 237.184 312.846C237.507 312.717 238.67 312.265 240.026 312.265C241.254 312.265 242.287 312.653 243.127 313.299C244.742 314.655 245 316.98 244.548 318.595C244.096 320.274 242.868 321.372 241.447 322.083C241.577 322.277 241.77 322.535 241.77 322.987C241.9 323.956 241.383 325.506 240.285 326.604C239.316 327.638 237.701 328.284 236.022 328.284ZM239.316 317.368C239.122 317.432 238.928 317.562 238.67 317.755C238.928 317.626 239.122 317.497 239.316 317.368Z" fill="#60A06C"/>
<path opacity="0.34" d="M246.421 328.542C244.935 328.542 243.45 328.025 242.61 327.057C241.383 325.765 240.995 323.698 241.447 321.243C242.093 318.143 244.031 315.495 246.356 314.526C247.196 314.203 248.165 314.009 249.069 314.009C250.555 314.009 251.717 314.461 252.492 315.365C253.913 316.98 253.397 319.241 253.203 319.887C252.815 321.243 251.911 322.277 250.813 322.987C251.007 323.181 251.201 323.504 251.201 323.956C251.265 324.86 250.813 326.346 249.78 327.25C249.004 328.09 247.777 328.542 246.421 328.542Z" fill="#60A06C"/>
<path opacity="0.34" d="M199.14 333.645C198.106 333.645 197.138 333.516 196.169 333.193C192.939 332.224 190.355 329.576 188.87 325.765C187.255 321.631 187.772 316.399 190.097 311.684C189.128 311.878 188.288 312.394 187.513 312.846C186.674 313.363 185.963 313.751 185.188 313.751C184.736 313.751 184.348 313.621 183.961 313.363C183.25 312.782 182.863 311.748 182.927 310.456C182.992 308.906 183.702 306.775 185.446 305.806C186.092 305.418 186.867 305.225 187.707 305.225C189.387 305.225 191.324 306 193.327 306.904C195.264 304.708 197.525 303.222 199.85 302.447C201.142 302.06 202.434 301.801 203.532 301.801C205.212 301.801 206.568 302.318 207.408 303.287C209.345 305.483 208.441 309.423 206.439 311.748C205.47 312.846 203.661 314.203 200.432 314.397C200.238 314.397 200.109 314.397 199.915 314.397C198.688 314.397 197.654 314.138 196.492 313.751C196.169 313.686 195.91 313.557 195.652 313.492C194.425 317.82 195.006 322.471 197.073 324.215C197.719 324.731 198.817 325.313 199.98 325.313C200.238 325.313 200.496 325.313 200.69 325.248C200.755 325.248 202.499 324.796 202.822 323.439C203.015 322.794 202.886 321.954 202.499 321.502C202.24 321.179 201.853 321.05 201.465 320.856C201.078 320.727 200.044 320.274 200.173 319.176C200.303 317.949 201.853 317.368 203.209 317.368C203.597 317.368 203.984 317.432 204.372 317.497C207.343 318.272 209.539 322.471 208.829 326.152C208.247 329.253 205.922 330.932 205.147 331.513C203.468 332.999 201.336 333.645 199.14 333.645ZM197.913 309.229C198.688 309.617 199.204 309.811 199.721 309.811C199.85 309.811 199.98 309.811 200.109 309.811C201.207 309.681 202.499 309.035 202.822 308.002C203.015 307.485 202.951 306.969 202.822 306.904C202.822 306.904 202.628 306.775 202.305 306.775C201.53 306.775 200.561 307.098 199.915 307.485L199.85 307.55C199.14 307.937 198.494 308.519 197.913 309.229Z" fill="#60A06C"/>
<path d="M135.905 178.883L137.649 193.093H275.1C280.332 193.093 284.401 197.679 283.755 202.911L269.416 351.472C268.835 357.156 264.571 361.807 258.952 362.84L242.804 365.747H265.799H271.289C274.971 365.747 278.071 363.099 278.523 359.482L301.13 178.948H135.905V178.883Z" fill="#60A06C"/>
<path d="M168.523 365.682L171.107 384.156C171.495 386.933 174.078 389 177.179 389H259.985C263.086 389 265.669 386.933 266.057 384.156L268.641 365.682H168.523Z" stroke="#474747" stroke-width="6" stroke-miterlimit="10" stroke-linecap="round" stroke-linejoin="round"/>
<path d="M278.523 359.417L301.13 178.883H135.905L158.512 359.417C158.964 362.97 162.064 365.682 165.746 365.682H271.354C275.035 365.682 278.071 363.034 278.523 359.417Z" stroke="#474747" stroke-width="6" stroke-miterlimit="10" stroke-linecap="round" stroke-linejoin="round"/>
<path d="M304.683 178.883C247.261 178.883 189.774 178.883 132.352 178.883C126.732 178.948 127.508 175.912 129.445 170.163C130.608 166.74 130.608 163.058 129.445 159.699C127.508 153.886 126.732 150.915 132.352 150.98C189.774 150.98 247.261 150.98 304.683 150.98C310.302 150.915 309.527 153.951 307.589 159.699C306.427 163.123 306.427 166.805 307.589 170.163C309.527 175.912 310.302 178.948 304.683 178.883Z" fill="#646464"/>
<path d="M307.589 159.635C308.816 155.889 309.591 153.305 308.493 151.948C308.235 152.788 307.912 153.757 307.589 154.79C306.749 157.245 306.556 159.893 306.879 162.477C307.072 161.508 307.266 160.604 307.589 159.635Z" fill="#7C7C7C"/>
<path d="M130.156 162.477C130.543 159.893 130.35 157.31 129.445 154.791C129.122 153.757 128.799 152.853 128.541 151.948C127.443 153.305 128.154 155.889 129.445 159.635C129.768 160.604 130.027 161.508 130.156 162.477Z" fill="#7C7C7C"/>
<path d="M308.494 172.941C307.848 173.651 306.685 174.039 304.683 174.039C247.261 174.039 189.774 174.039 132.352 174.039C130.35 174.039 129.187 173.716 128.541 172.941C127.443 176.881 127.701 178.883 132.352 178.883C189.774 178.883 247.261 178.883 304.683 178.883C309.333 178.948 309.592 176.881 308.494 172.941Z" fill="#7C7C7C"/>
<path d="M307.589 170.163C307.46 169.84 307.395 169.517 307.331 169.194C306.491 172.23 306.556 175.46 307.525 178.496C309.915 177.527 309.075 174.685 307.589 170.163Z" fill="#646464"/>
<path d="M130.35 166.029C130.996 165.771 133.515 159.506 137.39 159.506C194.812 159.506 243.708 159.506 301.13 159.506C305.781 159.506 306.62 168.936 307.331 169.194C307.331 169.13 307.589 159.699 307.589 159.635C309.527 153.822 310.302 150.85 304.683 150.915C247.325 150.915 189.903 150.915 132.546 150.915C126.732 150.786 127.508 153.822 129.445 159.635C129.51 159.764 130.285 165.965 130.35 166.029Z" fill="#646464"/>
<path d="M129.575 178.496C130.544 175.46 130.608 172.23 129.768 169.194C129.704 169.517 129.575 169.84 129.51 170.163C127.96 174.685 127.12 177.527 129.575 178.496Z" fill="#646464"/>
<path d="M304.683 178.883C247.261 178.883 189.774 178.883 132.352 178.883C126.732 178.948 127.508 175.912 129.445 170.163C130.608 166.74 130.608 163.058 129.445 159.699C127.508 153.886 126.732 150.915 132.352 150.98C189.774 150.98 247.261 150.98 304.683 150.98C310.302 150.915 309.527 153.951 307.589 159.699C306.427 163.123 306.427 166.805 307.589 170.163C309.527 175.912 310.302 178.948 304.683 178.883Z" stroke="#474747" stroke-width="6" stroke-miterlimit="10" stroke-linecap="round" stroke-linejoin="round"/>
<path d="M299.709 150.915H137.39L139.005 145.231C141.524 136.188 150.179 129.923 160.062 129.923H277.037C286.92 129.923 295.511 136.188 298.094 145.231L299.709 150.915Z" fill="#D6D6D4"/>
<path d="M299.709 150.915H137.39L139.005 145.231C141.524 136.188 150.179 129.923 160.062 129.923H277.037C286.92 129.923 295.511 136.188 298.094 145.231L299.709 150.915Z" fill="#D6D6D4"/>
<path d="M171.43 136.64L282.204 136.576C290.214 136.576 295.123 142.324 297.383 143.035C293.443 137.157 284.723 129.923 277.102 129.923H159.997C150.114 129.923 141.524 136.188 138.94 145.231L137.325 150.915H151.406C154.83 143.422 162.645 136.64 171.43 136.64Z" fill="white"/>
<path d="M299.709 150.915H137.39L139.005 145.231C141.524 136.188 150.179 129.923 160.062 129.923H277.037C286.92 129.923 295.511 136.188 298.094 145.231L299.709 150.915Z" stroke="#474747" stroke-width="6" stroke-miterlimit="10" stroke-linecap="round" stroke-linejoin="round"/>
<path d="M267.736 129.923H223.426V125.789C223.426 121.009 227.302 117.069 232.146 117.069H259.081C263.861 117.069 267.801 120.944 267.801 125.789V129.923H267.736Z" fill="#D6D6D4"/>
<path d="M267.736 129.923H223.426V125.789C223.426 121.009 227.302 117.069 232.146 117.069H259.081C263.861 117.069 267.801 120.944 267.801 125.789V129.923H267.736Z" fill="#D6D6D4"/>
<path d="M223.491 129.794C223.491 125.208 227.173 121.526 231.759 121.526H259.533C263.732 121.526 267.219 124.691 267.736 128.76V125.401C267.736 120.815 264.054 117.134 259.468 117.134H231.694C227.108 117.134 223.426 120.815 223.426 125.401V129.923H223.491V129.794Z" fill="white"/>
<path d="M213.285 281.584C206.438 281.584 194.037 276.74 190.097 263.757C186.221 253.164 187.901 240.697 194.424 231.332C199.204 224.485 205.728 220.609 212.316 220.609C214.319 220.609 216.321 220.997 218.259 221.708L218.323 221.772L218.388 221.837C219.744 222.612 220.519 223.516 220.778 224.614C221.165 226.487 219.938 228.231 218.323 230.427C215.094 234.884 210.701 240.956 215.029 252.259C220.067 265.307 220.067 277.709 216.967 280.68C216.321 281.261 215.029 281.584 213.285 281.584Z" fill="#60A06C"/>
<path d="M267.736 129.923H223.426V125.789C223.426 121.009 227.302 117.069 232.146 117.069H259.081C263.861 117.069 267.801 120.944 267.801 125.789V129.923H267.736Z" stroke="#474747" stroke-width="6" stroke-miterlimit="10" stroke-linecap="round" stroke-linejoin="round"/>
<path d="M231.048 281.39C228.529 281.39 226.204 280.421 224.589 278.742C223.232 277.256 222.522 275.383 222.651 273.381C222.974 268.214 221.23 263.305 219.551 258.525C218.001 254.197 216.515 250.063 216.515 245.8C216.45 230.04 227.043 225.066 228.335 224.55C229.175 224.033 230.144 223.774 231.177 223.774C235.376 223.774 240.543 227.908 244.289 234.303C246.808 238.566 254.236 253.874 244.483 271.443C240.931 277.773 236.086 281.39 231.048 281.39Z" fill="#60A06C"/>
<path d="M218.453 220.932C226.075 225.26 206.762 230.557 214.513 250.709C219.809 264.467 219.034 275.577 216.774 277.709C214.513 279.84 196.815 277.321 191.906 261.431C183.896 239.599 201.336 214.538 218.453 220.932Z" fill="#F6F9E4"/>
<path d="M229.562 223.774C229.562 223.774 218.388 228.167 218.452 243.927C218.452 252.711 225.235 261.561 224.589 271.572C224.136 278.548 236.086 283.199 244.031 268.924C257.918 243.733 237.249 218.865 229.562 223.774Z" fill="#F6F9E4"/>
<path d="M211.283 312.33C208.312 315.172 208.182 321.049 210.831 323.181C211.024 323.31 211.993 324.15 213.414 324.085C215.869 324.021 217.742 321.308 218.323 319.112C219.228 315.624 217.354 311.232 214.771 310.779C213.156 310.521 211.735 311.877 211.283 312.33ZM215.223 318.724C215.158 318.918 214.771 320.081 213.867 320.21C213.285 320.274 212.833 319.887 212.768 319.822C211.993 319.112 212.058 317.497 212.833 315.753C213.35 314.978 213.737 314.784 213.996 314.849C214.9 314.849 215.869 317.045 215.223 318.724Z" fill="#F6F9E4"/>
<path d="M219.163 331.643C217.807 330.738 218.969 328.671 219.744 311.102C219.938 306.258 220.972 301.866 223.491 300.122C224.007 299.799 225.428 298.765 227.172 299.024C227.56 299.088 228.4 299.218 229.046 299.928C230.273 301.155 229.885 303.028 229.821 303.158C229.433 302.964 228.723 302.641 227.818 302.77C227.818 302.77 226.785 302.964 225.816 303.997C223.361 306.646 223.62 317.755 223.62 317.755C223.878 326.992 224.33 330.222 222.522 331.513C221.682 332.224 220.196 332.288 219.163 331.643Z" fill="#F6F9E4"/>
<path d="M226.527 331.449C225.364 330.674 226.333 328.865 227.043 313.686C227.237 309.488 228.141 305.677 230.273 304.191C230.725 303.868 231.952 303.028 233.438 303.287C233.761 303.351 234.471 303.481 235.117 304.062C236.151 305.095 235.828 306.71 235.763 306.904C235.44 306.71 234.794 306.452 234.019 306.581C234.019 306.581 233.115 306.71 232.275 307.614C230.144 309.94 230.402 319.499 230.402 319.499C230.596 327.509 230.983 330.286 229.433 331.384C228.658 331.966 227.431 332.03 226.527 331.449Z" fill="#F6F9E4"/>
<path d="M237.378 322.923C236.797 323.052 236.022 323.052 235.44 322.664C234.084 321.695 234.536 318.272 236.216 316.27C236.474 316.011 237.96 314.332 239.316 314.784C239.703 314.913 240.22 315.301 240.22 315.753C240.285 316.851 238.024 318.078 236.022 318.207C234.924 318.272 234.019 318.014 233.503 317.82C232.921 318.66 232.986 319.176 233.051 319.37C233.438 320.597 236.216 320.533 236.603 320.468C236.861 320.468 241.706 320.145 242.61 316.851C242.933 315.624 242.739 313.88 241.577 312.846C239.897 311.425 237.314 312.394 236.991 312.588C232.405 314.397 230.338 322.277 232.663 324.602C234.019 325.958 237.184 325.765 238.735 324.279C239.768 323.246 240.026 321.631 239.704 321.437C239.51 321.437 238.864 322.6 237.378 322.923Z" fill="#F6F9E4"/>
<path d="M247.132 323.762C246.615 323.892 245.904 323.892 245.452 323.569C244.225 322.664 244.742 319.628 246.163 317.885C246.357 317.626 247.455 316.27 248.359 316.593C248.811 316.722 249.134 317.239 249.134 317.691C249.069 318.724 247.325 319.499 246.034 319.628C245.065 319.758 244.225 319.499 243.773 319.306C243.256 320.016 243.321 320.533 243.385 320.662C243.708 321.631 245.581 321.76 246.55 321.631C248.23 321.502 250.749 320.468 251.395 318.207C251.459 317.949 251.976 316.076 250.942 314.913C249.78 313.621 247.584 313.88 246.227 314.397C242.416 315.947 240.672 322.6 242.869 324.86C244.16 326.152 247.002 326.281 248.359 325.054C249.328 324.215 249.521 322.729 249.263 322.535C249.005 322.406 248.423 323.439 247.132 323.762Z" fill="#F6F9E4"/>
<path d="M239.316 306.129C239.251 306.969 238.993 308.002 238.218 308.777C233.761 313.04 218.388 301.091 214.06 305.354C213.091 306.258 212.316 308.325 212.833 308.906C213.091 309.165 213.544 309.035 214.706 308.906C215.74 308.777 216.838 308.842 217.871 308.713C220.455 308.454 224.395 310.004 228.464 310.909C229.498 311.102 237.636 312.782 239.574 310.327C239.832 310.004 241.06 308.39 240.543 307.356C240.091 306.904 239.703 306.516 239.316 306.129Z" fill="#F6F9E4"/>
<path d="M194.102 307.744C196.879 309.1 197.783 310.004 199.592 309.811C201.013 309.617 202.886 308.777 203.403 307.098C203.597 306.452 203.726 305.289 203.144 304.708C202.24 303.739 199.979 304.385 198.688 305.031C198.688 305.031 198.623 305.095 198.558 305.095C192.939 308.131 191.195 320.274 195.716 324.085C196.879 325.054 198.688 325.829 200.496 325.377C200.754 325.313 203.015 324.731 203.597 322.664C203.855 321.631 203.661 320.404 203.015 319.564C202.176 318.595 200.948 318.53 201.013 318.207C201.013 317.885 202.369 317.368 203.597 317.691C205.922 318.272 207.666 321.825 207.084 324.86C206.568 327.444 204.565 328.93 203.919 329.382C201.594 331.061 198.558 331.449 195.975 330.674C191.582 329.317 189.903 324.925 189.516 324.021C186.351 315.882 192.293 304.772 199.721 302.447C200.238 302.253 204.242 301.026 205.922 302.899C207.343 304.514 206.568 307.808 204.953 309.617C203.144 311.684 200.561 311.813 199.85 311.877C198.558 311.942 197.59 311.684 196.298 311.296C193.003 310.392 192.81 309.358 191.001 309.035C187.513 308.519 185.317 311.877 184.154 311.038C183.121 310.263 183.573 306.71 185.511 305.612C187.384 304.514 190.484 306 194.102 307.744Z" fill="#F6F9E4"/>
<path d="M268.447 36.1355C263.409 43.176 257.854 44.92 253.591 53.1231C252.428 55.3839 249.005 61.9722 250.038 69.917C251.394 80.3808 259.275 83.0937 260.05 92.5241C260.373 96.7872 259.21 101.954 254.882 108.026" stroke="#474747" stroke-width="6" stroke-miterlimit="10" stroke-linecap="round" stroke-linejoin="round"/>
<path d="M284.595 3C288.535 19.3417 285.693 29.418 282.334 35.6188C276.198 46.9224 265.023 51.3146 264.248 62.6827C263.861 68.0438 265.992 72.5653 267.736 75.4073" stroke="#474747" stroke-width="6" stroke-miterlimit="10" stroke-linecap="round" stroke-linejoin="round"/>
<path d="M247.584 41.755C247.584 41.755 239.833 50.7979 239.833 59.001" stroke="#474747" stroke-width="6" stroke-miterlimit="10" stroke-linecap="round" stroke-linejoin="round"/>
</svg>
